# This file uses centimeters as units for non-parametric coordinates.

mtllib Road.mtl
g default
v -261.059064 2.366528 280.003942
v 231.798358 2.366528 280.003942
v -261.059064 11.963909 280.003942
v 231.798358 11.963909 280.003942
v -261.059064 11.963909 -260.319612
v 231.798358 11.963909 -260.319612
v -261.059064 2.366528 -260.319612
v 231.798358 2.366528 -260.319612
v -261.059064 11.963909 -145.813691
v 231.798358 11.963909 -145.813691
v 231.798358 2.366528 -145.813691
v -261.059064 2.366528 -145.813691
v -261.059064 6.062718 -137.503455
v 231.798358 6.062718 -137.503455
v 231.798358 2.366528 -113.609093
v -261.059064 2.366528 -113.609093
v -261.059064 11.963909 172.655119
v 231.798358 11.963909 172.655119
v 231.798358 2.366528 172.655137
v -261.059064 2.366528 172.655137
v 231.798358 2.366528 139.115591
v 231.798358 6.062718 163.009820
v -261.059064 6.062718 163.009820
v -261.059064 2.366528 139.115591
v 231.798358 2.366528 32.661126
v 231.798358 6.062718 36.425490
v -261.059064 6.062718 36.425490
v -261.059064 2.366528 32.661126
v 231.798358 2.366528 4.302554
v 231.798358 6.062718 2.704502
v -261.059064 6.062718 2.704502
v -261.059064 2.366528 4.302554
v -205.032603 2.366528 280.003942
v -205.032603 2.366528 172.655137
v -205.032603 2.366528 139.115609
v -205.032603 2.366528 32.661126
v -205.032603 2.366528 4.302554
v -205.032603 2.366528 -113.609093
v -205.032603 2.366528 -145.813691
v -205.032603 2.366528 -260.319612
v -205.032603 11.963909 -260.319612
v -205.032603 11.963909 -145.813691
v -205.032603 6.062718 -137.503455
v -205.032603 6.062718 2.704502
v -205.032603 6.062718 36.425490
v -205.032603 6.062718 163.009820
v -205.032603 11.963909 172.655119
v -205.032603 11.963909 280.003942
v -83.335849 2.366528 -145.813691
v -83.335849 2.366528 -113.609093
v -83.335849 2.366528 4.302554
v -83.335849 2.366528 32.661126
v -83.335849 2.366528 139.115591
v -83.335849 2.366528 172.655137
v -83.335849 2.366528 280.003942
v -83.335849 11.963909 280.003942
v -83.335849 11.963909 172.655119
v -83.335849 6.062718 163.009820
v -83.335849 6.062718 36.425490
v -83.335849 6.062718 2.704502
v -83.335849 6.062718 -137.503455
v -83.335849 11.963909 -145.813691
v -83.335849 11.963909 -260.319612
v -83.335849 2.366528 -260.319612
v -44.677405 2.366528 -145.813691
v -44.677405 2.366528 -113.609093
v -44.677405 2.366528 4.302554
v -44.677405 2.366528 32.661126
v -44.677405 2.366528 139.115591
v -44.677405 2.366528 172.655137
v -44.677405 2.366528 280.003942
v -44.677405 11.963909 280.003942
v -44.677405 11.963909 172.655119
v -44.677405 6.062718 163.009820
v -44.677405 6.062718 36.425490
v -44.677405 6.062718 2.704502
v -44.677405 6.062718 -137.503455
v -44.677405 11.963909 -145.813691
v -44.677405 11.963909 -260.319612
v -44.677405 2.366528 -260.319612
v 79.562520 2.366528 -145.813691
v 79.562520 2.366528 -113.609093
v 79.562520 2.366528 4.302554
v 79.562520 2.366528 32.661126
v 79.562520 2.366528 139.115591
v 79.562520 2.366528 172.655137
v 79.562520 2.366528 280.003942
v 79.562520 11.963909 280.003942
v 79.562520 11.963909 172.655119
v 79.562520 6.062718 163.009820
v 79.562520 6.062718 36.425490
v 79.562520 6.062718 2.704502
v 79.562520 6.062718 -137.503455
v 79.562520 11.963909 -145.813691
v 79.562520 11.963909 -260.319612
v 79.562520 2.366528 -260.319612
v 111.137750 2.366528 -145.813691
v 111.137750 2.366528 -113.609093
v 111.137750 2.366528 4.302554
v 111.137750 2.366528 32.661126
v 111.137750 2.366528 139.115591
v 111.137750 2.366528 172.655137
v 111.137750 2.366528 280.003942
v 111.137750 11.963909 280.003942
v 111.137750 11.963909 172.655119
v 111.137750 6.062718 163.009820
v 111.137750 6.062718 36.425490
v 111.137750 6.062718 2.704502
v 111.137750 6.062718 -137.503455
v 111.137750 11.963909 -145.813691
v 111.137750 11.963909 -260.319612
v 111.137750 2.366528 -260.319612
v 231.627163 2.366528 -145.813691
v 231.627163 2.366528 -113.609093
v 231.627163 2.366528 4.302554
v 231.627163 2.366528 32.661126
v 231.627163 2.366528 139.115591
v 231.627163 2.366528 172.655137
v 231.627163 2.366528 280.003942
v 231.627163 11.963909 280.003942
v 231.627163 11.963909 172.655119
v 231.627163 6.062718 163.009820
v 231.627163 6.062718 36.425490
v 231.627163 6.062718 2.704502
v 231.627163 6.062718 -137.503455
v 231.627163 11.963909 -145.813691
v 231.627163 11.963909 -260.319612
v 231.627163 2.366528 -260.319612
vt 0.166713 0.636810
vt 0.166713 0.636810
vt 0.166713 0.739267
vt 0.166713 0.739267
vt 0.247457 0.739267
vt 0.247457 0.739267
vt 0.269170 0.739267
vt 0.269170 0.739267
vt 0.269170 0.636810
vt 0.269170 0.636810
vt 0.247457 0.636810
vt 0.247457 0.636810
vt 0.245881 0.676269
vt 0.241351 0.636810
vt 0.241351 0.636810
vt 0.829349 0.602217
vt 0.828718 0.455087
vt 0.245881 0.676269
vt 0.187069 0.739267
vt 0.187069 0.636810
vt 0.193429 0.636810
vt 0.188898 0.676269
vt 0.193429 0.636810
vt 0.820580 0.602254
vt 0.819949 0.455125
vt 0.187069 0.636810
vt 0.188898 0.676269
vt 0.187069 0.739267
vt 0.751764 0.602549
vt 0.751133 0.455420
vt 0.742000 0.455459
vt 0.742631 0.602588
vt 0.213615 0.636810
vt 0.212901 0.676269
vt 0.212901 0.676269
vt 0.213615 0.636810
vt 0.218992 0.636810
vt 0.219295 0.676269
vt 0.219295 0.676269
vt 0.218992 0.636810
vt 0.166713 0.636810
vt 0.187069 0.636810
vt 0.193429 0.636810
vt 0.213615 0.636810
vt 0.218992 0.636810
vt 0.241351 0.636810
vt 0.247457 0.636810
vt 0.269170 0.636810
vt 0.269170 0.739267
vt 0.247457 0.739267
vt 0.829284 0.587044
vt 0.820515 0.587082
vt 0.245881 0.676269
vt 0.219295 0.676269
vt 0.212901 0.676269
vt 0.751698 0.587377
vt 0.188898 0.676269
vt 0.742566 0.587416
vt 0.187069 0.739267
vt 0.166713 0.739267
vt 0.247457 0.636810
vt 0.241351 0.636810
vt 0.218992 0.636810
vt 0.213615 0.636810
vt 0.193429 0.636810
vt 0.187069 0.636810
vt 0.166713 0.636810
vt 0.166713 0.739267
vt 0.742424 0.554460
vt 0.187069 0.739267
vt 0.751557 0.554421
vt 0.188898 0.676269
vt 0.212901 0.676269
vt 0.219295 0.676269
vt 0.820374 0.554126
vt 0.245881 0.676269
vt 0.247457 0.739267
vt 0.829143 0.554088
vt 0.269170 0.739267
vt 0.269170 0.636810
vt 0.247457 0.636810
vt 0.241351 0.636810
vt 0.218992 0.636810
vt 0.213615 0.636810
vt 0.193429 0.636810
vt 0.187069 0.636810
vt 0.166713 0.636810
vt 0.166713 0.739267
vt 0.742366 0.540792
vt 0.187069 0.739267
vt 0.751499 0.540753
vt 0.188898 0.676269
vt 0.212901 0.676269
vt 0.219295 0.676269
vt 0.820315 0.540458
vt 0.245881 0.676269
vt 0.247457 0.739267
vt 0.829084 0.540420
vt 0.269170 0.739267
vt 0.269170 0.636810
vt 0.247457 0.636810
vt 0.241351 0.636810
vt 0.218992 0.636810
vt 0.213615 0.636810
vt 0.193429 0.636810
vt 0.187069 0.636810
vt 0.166713 0.636810
vt 0.166713 0.739267
vt 0.742235 0.510346
vt 0.187069 0.739267
vt 0.751368 0.510307
vt 0.188898 0.676269
vt 0.212901 0.676269
vt 0.219295 0.676269
vt 0.820184 0.510012
vt 0.245881 0.676269
vt 0.247457 0.739267
vt 0.828954 0.509975
vt 0.269170 0.739267
vt 0.269170 0.636810
vt 0.247457 0.636810
vt 0.241351 0.636810
vt 0.218992 0.636810
vt 0.213615 0.636810
vt 0.193429 0.636810
vt 0.187069 0.636810
vt 0.166713 0.636810
vt 0.166713 0.739267
vt 0.742203 0.502845
vt 0.187069 0.739267
vt 0.751336 0.502806
vt 0.188898 0.676269
vt 0.212901 0.676269
vt 0.219295 0.676269
vt 0.820152 0.502511
vt 0.245881 0.676269
vt 0.247457 0.739267
vt 0.828921 0.502473
vt 0.269170 0.739267
vt 0.269170 0.636810
vt 0.247457 0.636810
vt 0.241351 0.636810
vt 0.218992 0.636810
vt 0.213615 0.636810
vt 0.193429 0.636810
vt 0.187069 0.636810
vt 0.166713 0.636810
vt 0.166713 0.739267
vt 0.742066 0.470903
vt 0.187069 0.739267
vt 0.751199 0.470864
vt 0.188898 0.676269
vt 0.212901 0.676269
vt 0.219295 0.676269
vt 0.820015 0.470569
vt 0.245881 0.676269
vt 0.247457 0.739267
vt 0.828785 0.470531
vt 0.269170 0.739267
vt 0.269170 0.636810
vt 0.551229 0.487343
vt 0.448772 0.487343
vt 0.448772 0.487343
vt 0.551229 0.487343
vt 0.551229 0.487343
vt 0.448772 0.487343
vt 0.448772 0.487343
vt 0.551229 0.487343
vt 0.551229 0.487343
vt 0.448772 0.487343
vt 0.448772 0.487343
vt 0.551229 0.487343
vn 0.000000 0.000000 1.000000
vn 0.000000 0.000000 1.000000
vn 0.000000 0.000000 1.000000
vn 0.000000 0.000000 1.000000
vn 0.000000 1.000000 0.000000
vn 0.000000 0.998848 0.047994
vn 0.000000 0.998848 0.047994
vn 0.000000 1.000000 0.000000
vn 0.000000 0.000000 -1.000000
vn 0.000000 0.000000 -1.000000
vn 0.000000 0.000000 -1.000000
vn 0.000000 0.000000 -1.000000
vn 0.000000 -1.000000 0.000000
vn 0.000000 -1.000000 0.000000
vn 0.000000 -1.000000 0.000000
vn 0.000000 -1.000000 0.000000
vn 1.000000 0.000000 0.000000
vn 1.000000 0.000000 0.000000
vn 1.000000 0.000000 0.000000
vn 1.000000 0.000000 0.000000
vn -1.000000 0.000000 0.000000
vn -1.000000 0.000000 0.000000
vn -1.000000 0.000000 0.000000
vn -1.000000 0.000000 0.000000
vn 0.000000 0.999212 0.039702
vn 0.000000 0.999212 0.039702
vn 1.000000 -0.000003 0.000000
vn 1.000000 -0.000004 0.000000
vn 0.000000 -1.000000 0.000000
vn 0.000000 -1.000000 0.000000
vn -1.000000 0.000000 0.000000
vn -1.000000 0.000000 0.000000
vn 0.000000 0.999063 -0.043277
vn 0.000000 0.998730 -0.050376
vn 0.000000 0.998730 -0.050376
vn 0.000000 0.999063 -0.043277
vn 1.000000 -0.000000 0.000000
vn 1.000000 -0.000001 0.000000
vn 1.000000 -0.000001 0.000000
vn 1.000000 -0.000002 0.000000
vn 0.000000 -1.000000 0.000000
vn 0.000000 -1.000000 0.000000
vn 0.000000 -1.000000 0.000000
vn 0.000000 -1.000000 0.000000
vn -1.000000 -0.000004 0.000000
vn -1.000000 -0.000005 0.000000
vn -1.000000 0.000000 0.000000
vn -1.000000 0.000000 0.000000
vn 0.000000 1.000000 0.000000
vn 0.000000 1.000000 0.000000
vn 1.000000 0.000000 0.000000
vn 1.000000 0.000000 0.000000
vn 0.000000 -1.000000 0.000000
vn 0.000000 -1.000000 0.000000
vn -1.000000 0.000000 0.000000
vn -1.000000 0.000000 0.000000
vn 1.000000 0.000000 0.000000
vn 1.000000 0.000000 0.000000
vn 0.000000 1.000000 0.000000
vn 0.000000 1.000000 0.000000
vn -1.000000 -0.000004 0.000000
vn -1.000000 -0.000004 0.000000
vn 0.000000 -1.000000 0.000000
vn 0.000000 -1.000000 0.000000
vn 1.000000 -0.000004 0.000000
vn 1.000000 -0.000004 0.000000
vn 0.000000 1.000000 0.000000
vn 0.000000 1.000000 0.000000
vn -1.000000 0.000000 0.000000
vn -1.000000 0.000000 0.000000
vn 0.000000 -1.000000 0.000000
vn 0.000000 -1.000000 0.000000
vn 0.000000 -1.000000 0.000000
vn 0.000000 -1.000000 0.000000
vn 0.000000 -1.000000 0.000000
vn 0.000000 -1.000000 0.000000
vn 0.000000 -1.000000 0.000000
vn 0.000000 -1.000000 0.000000
vn 0.000000 -1.000000 0.000000
vn 0.000000 -1.000000 0.000000
vn 0.000000 0.000000 -1.000000
vn 0.000000 0.000000 -1.000000
vn 0.000000 0.998848 0.047994
vn 0.000000 1.000000 0.000000
vn 0.000000 0.999212 0.039702
vn 0.000000 1.000000 0.000000
vn 0.000000 1.000000 0.000000
vn 0.000000 0.999063 -0.043277
vn 0.000000 0.998730 -0.050376
vn 0.000000 1.000000 0.000000
vn 0.000000 0.000000 1.000000
vn 0.000000 0.000000 1.000000
vn 0.000000 -1.000000 0.000000
vn 0.000000 -1.000000 0.000000
vn 0.000000 -1.000000 0.000000
vn 0.000000 -1.000000 0.000000
vn 0.000000 -1.000000 0.000000
vn 0.000000 -1.000000 0.000000
vn 0.000000 -1.000000 0.000000
vn 0.000000 0.000000 1.000000
vn 0.000000 0.000000 1.000000
vn 0.000000 1.000000 0.000000
vn 0.000000 0.998730 -0.050376
vn 0.000000 0.999063 -0.043277
vn 0.000000 1.000000 0.000000
vn 0.000000 1.000000 0.000000
vn 0.000000 0.999212 0.039702
vn 0.000000 0.998848 0.047994
vn 0.000000 1.000000 0.000000
vn 0.000000 0.000000 -1.000000
vn 0.000000 0.000000 -1.000000
vn 0.000000 -1.000000 0.000000
vn 0.000000 -1.000000 0.000000
vn 0.000000 -1.000000 0.000000
vn 0.000000 -1.000000 0.000000
vn 0.000000 -1.000000 0.000000
vn 0.000000 -1.000000 0.000000
vn 0.000000 -1.000000 0.000000
vn 0.000000 -1.000000 0.000000
vn 0.000000 0.000000 1.000000
vn 0.000000 0.000000 1.000000
vn 0.000000 1.000000 0.000000
vn 0.000000 0.998730 -0.050376
vn 0.000000 0.999063 -0.043277
vn 0.000000 1.000000 0.000000
vn 0.000000 1.000000 0.000000
vn 0.000000 0.999212 0.039702
vn 0.000000 0.998848 0.047994
vn 0.000000 1.000000 0.000000
vn 0.000000 0.000000 -1.000000
vn 0.000000 0.000000 -1.000000
vn 0.000000 -1.000000 0.000000
vn 0.000000 -1.000000 0.000000
vn 0.000000 -1.000000 0.000000
vn 0.000000 -1.000000 0.000000
vn 0.000000 -1.000000 0.000000
vn 0.000000 -1.000000 0.000000
vn 0.000000 -1.000000 0.000000
vn 0.000000 -1.000000 0.000000
vn 0.000000 0.000000 1.000000
vn 0.000000 0.000000 1.000000
vn 0.000000 1.000000 0.000000
vn 0.000000 0.998730 -0.050376
vn 0.000000 0.999063 -0.043277
vn 0.000000 1.000000 0.000000
vn 0.000000 1.000000 0.000000
vn 0.000000 0.999212 0.039702
vn 0.000000 0.998848 0.047994
vn 0.000000 1.000000 0.000000
vn 0.000000 0.000000 -1.000000
vn 0.000000 0.000000 -1.000000
vn 0.000000 -1.000000 0.000000
vn 0.000000 -1.000000 0.000000
vn 0.000000 -1.000000 0.000000
vn 0.000000 -1.000000 0.000000
vn 0.000000 -1.000000 0.000000
vn 0.000000 -1.000000 0.000000
vn 0.000000 -1.000000 0.000000
vn 0.000000 -1.000000 0.000000
vn 0.000000 0.000000 1.000000
vn 0.000000 0.000000 1.000000
vn 0.000000 1.000000 0.000000
vn 0.000000 0.998730 -0.050376
vn 0.000000 0.999063 -0.043277
vn 0.000000 1.000000 0.000000
vn 0.000000 1.000000 0.000000
vn 0.000000 0.999212 0.039702
vn 0.000000 0.998848 0.047994
vn 0.000000 1.000000 0.000000
vn 0.000000 0.000000 -1.000000
vn 0.000000 0.000000 -1.000000
vn 0.000000 -1.000000 0.000000
vn 0.000000 -1.000000 0.000000
vn 0.000000 -1.000000 0.000000
vn 0.000000 -1.000000 0.000000
vn 0.000000 -1.000000 0.000000
vn 0.000000 -1.000000 0.000000
vn 0.000000 -1.000000 0.000000
vn 0.000000 -1.000000 0.000000
vn 0.000000 0.000000 1.000000
vn 0.000000 0.000000 1.000000
vn 0.000000 1.000000 0.000000
vn 0.000000 0.998730 -0.050377
vn 0.000000 0.999063 -0.043279
vn 0.000000 1.000000 0.000000
vn 0.000000 1.000000 0.000000
vn 0.000000 0.999212 0.039703
vn 0.000000 0.998848 0.047994
vn 0.000000 1.000000 0.000000
vn 0.000000 0.000000 -1.000000
vn 0.000000 0.000000 -1.000000
vn 0.000000 -1.000000 0.000000
s 1
g pCube1
usemtl lambert2SG
f 48/60/1 33/41/2 55/67/3 56/68/4
s 2
f 41/49/5 42/50/6 62/77/7 63/79/8
s 3
f 40/48/9 41/49/10 63/79/11 64/80/12
s 4
f 39/47/13 40/48/14 64/80/15 49/61/16
s 5
f 10/6/17 11/11/18 8/9/19 6/7/20
s 6
f 7/10/21 12/12/22 9/5/23 5/8/24
s 2
f 42/51/6 43/52/25 61/75/26 62/78/7
s 5
f 14/13/27 15/14/28 11/11/18 10/6/17
s 4
f 38/46/29 39/47/13 49/61/16 50/62/30
s 6
f 9/5/23 12/12/22 16/15/31 13/18/32
s 2
f 46/56/33 47/58/34 57/69/35 58/71/36
s 5
f 18/19/37 19/20/38 21/21/39 22/22/40
s 4
f 34/42/41 35/43/42 53/65/43 54/66/44
s 6
f 23/27/45 24/23/46 20/26/47 17/28/48
s 2
f 47/59/34 48/60/49 56/68/50 57/70/35
s 5
f 2/2/51 19/20/38 18/19/37 4/3/52
s 4
f 33/41/53 34/42/41 54/66/44 55/67/54
s 6
f 17/28/48 20/26/47 1/1/55 3/4/56
s 5
f 22/22/40 21/21/39 25/33/57 26/34/58
s 2
f 45/55/59 46/57/33 58/72/36 59/73/60
s 6
f 27/35/61 28/36/62 24/23/46 23/27/45
s 4
f 35/43/42 36/44/63 52/64/64 53/65/43
s 5
f 26/34/58 25/33/57 29/37/65 30/38/66
s 2
f 44/161/67 45/162/59 59/163/60 60/164/68
s 6
f 31/39/69 32/40/70 28/36/62 27/35/61
s 4
f 36/44/63 37/45/71 51/63/72 52/64/64
s 5
f 30/38/66 29/37/65 15/14/28 14/13/27
s 2
f 43/53/25 44/54/67 60/74/68 61/76/26
s 6
f 13/18/32 16/15/31 32/40/70 31/39/69
s 4
f 37/45/71 38/46/29 50/62/30 51/63/72
f 20/26/73 34/42/41 33/41/53 1/1/74
f 24/23/75 35/43/42 34/42/41 20/26/73
f 28/36/76 36/44/63 35/43/42 24/23/75
f 32/40/77 37/45/71 36/44/63 28/36/76
f 16/15/78 38/46/29 37/45/71 32/40/77
f 12/12/79 39/47/13 38/46/29 16/15/78
f 7/10/80 40/48/14 39/47/13 12/12/79
s 3
f 5/8/81 41/49/10 40/48/9 7/10/82
s 2
f 9/5/83 42/50/6 41/49/5 5/8/84
f 13/24/85 43/52/25 42/51/6 9/16/83
f 31/39/86 44/54/67 43/53/25 13/18/85
f 27/35/87 45/55/59 44/54/67 31/39/86
f 23/27/88 46/57/33 45/55/59 27/35/87
f 17/32/89 47/58/34 46/56/33 23/29/88
f 3/4/90 48/60/49 47/59/34 17/28/89
s 1
f 1/1/91 33/41/2 48/60/1 3/4/92
s 4
f 50/62/30 49/61/16 65/81/93 66/82/94
f 51/63/72 50/62/30 66/82/94 67/83/95
f 52/64/64 51/63/72 67/83/95 68/84/96
f 53/65/43 52/64/64 68/84/96 69/85/97
f 54/66/44 53/65/43 69/85/97 70/86/98
f 55/67/54 54/66/44 70/86/98 71/87/99
s 1
f 56/68/4 55/67/3 71/87/100 72/88/101
s 2
f 57/70/35 56/68/50 72/88/102 73/90/103
f 58/71/36 57/69/35 73/89/103 74/91/104
f 59/73/60 58/72/36 74/92/104 75/93/105
f 60/74/68 59/73/60 75/93/105 76/94/106
f 61/76/26 60/74/68 76/94/106 77/96/107
f 62/78/7 61/75/26 77/95/107 78/98/108
f 63/79/8 62/77/7 78/97/108 79/99/109
s 3
f 64/80/12 63/79/11 79/99/110 80/100/111
s 4
f 49/61/16 64/80/15 80/100/112 65/81/93
f 66/82/94 65/81/93 81/101/113 82/102/114
f 67/83/95 66/82/94 82/102/114 83/103/115
f 68/84/96 67/83/95 83/103/115 84/104/116
f 69/85/97 68/84/96 84/104/116 85/105/117
f 70/86/98 69/85/97 85/105/117 86/106/118
f 71/87/99 70/86/98 86/106/118 87/107/119
s 1
f 72/88/101 71/87/100 87/107/120 88/108/121
s 2
f 73/90/103 72/88/102 88/108/122 89/110/123
f 74/91/104 73/89/103 89/109/123 90/111/124
f 75/93/105 74/92/104 90/112/124 91/113/125
f 76/165/106 75/166/105 91/167/125 92/168/126
f 77/96/107 76/94/106 92/114/126 93/116/127
f 78/98/108 77/95/107 93/115/127 94/118/128
f 79/99/109 78/97/108 94/117/128 95/119/129
s 3
f 80/100/111 79/99/110 95/119/130 96/120/131
s 4
f 65/81/93 80/100/112 96/120/132 81/101/113
f 82/102/114 81/101/113 97/121/133 98/122/134
f 83/103/115 82/102/114 98/122/134 99/123/135
f 84/104/116 83/103/115 99/123/135 100/124/136
f 85/105/117 84/104/116 100/124/136 101/125/137
f 86/106/118 85/105/117 101/125/137 102/126/138
f 87/107/119 86/106/118 102/126/138 103/127/139
s 1
f 88/108/121 87/107/120 103/127/140 104/128/141
s 2
f 89/110/123 88/108/122 104/128/142 105/130/143
f 90/111/124 89/109/123 105/129/143 106/131/144
f 91/113/125 90/112/124 106/132/144 107/133/145
f 92/114/126 91/113/125 107/133/145 108/134/146
f 93/116/127 92/114/126 108/134/146 109/136/147
f 94/118/128 93/115/127 109/135/147 110/138/148
f 95/119/129 94/117/128 110/137/148 111/139/149
s 3
f 96/120/131 95/119/130 111/139/150 112/140/151
s 4
f 81/101/113 96/120/132 112/140/152 97/121/133
f 98/122/134 97/121/133 113/141/153 114/142/154
f 99/123/135 98/122/134 114/142/154 115/143/155
f 100/124/136 99/123/135 115/143/155 116/144/156
f 101/125/137 100/124/136 116/144/156 117/145/157
f 102/126/138 101/125/137 117/145/157 118/146/158
f 103/127/139 102/126/138 118/146/158 119/147/159
s 1
f 104/128/141 103/127/140 119/147/160 120/148/161
s 2
f 105/130/143 104/128/142 120/148/162 121/150/163
f 106/131/144 105/129/143 121/149/163 122/151/164
f 107/133/145 106/132/144 122/152/164 123/153/165
f 108/169/146 107/170/145 123/171/165 124/172/166
f 109/136/147 108/134/146 124/154/166 125/156/167
f 110/138/148 109/135/147 125/155/167 126/158/168
f 111/139/149 110/137/148 126/157/168 127/159/169
s 3
f 112/140/151 111/139/150 127/159/170 128/160/171
s 4
f 97/121/133 112/140/152 128/160/172 113/141/153
f 114/142/154 113/141/153 11/11/173 15/14/174
f 115/143/155 114/142/154 15/14/174 29/37/175
f 116/144/156 115/143/155 29/37/175 25/33/176
f 117/145/157 116/144/156 25/33/176 21/21/177
f 118/146/158 117/145/157 21/21/177 19/20/178
f 119/147/159 118/146/158 19/20/178 2/2/179
s 1
f 120/148/161 119/147/160 2/2/180 4/3/181
s 2
f 121/150/163 120/148/162 4/3/182 18/19/183
f 122/151/164 121/149/163 18/31/183 22/30/184
f 123/153/165 122/152/164 22/22/184 26/34/185
f 124/154/166 123/153/165 26/34/185 30/38/186
f 125/156/167 124/154/166 30/38/186 14/13/187
f 126/158/168 125/155/167 14/25/187 10/17/188
f 127/159/169 126/157/168 10/6/188 6/7/189
s 3
f 128/160/171 127/159/170 6/7/190 8/9/191
s 4
f 113/141/153 128/160/172 8/9/192 11/11/173
