# This file uses centimeters as units for non-parametric coordinates.

mtllib Microwave.mtl
g default
v 263.613460 177.706886 -437.048996
v 399.676414 177.706886 -442.410233
v 263.613460 254.961250 -437.048996
v 399.676414 254.961250 -442.410233
v 260.733057 254.961250 -510.151267
v 396.795957 254.961250 -515.512502
v 260.733057 177.706886 -510.151267
v 396.795957 177.706886 -515.512502
v 278.353642 186.076118 -437.629859
v 384.936194 186.076118 -441.829430
v 384.936194 246.592018 -441.829430
v 278.353642 246.592018 -437.629859
vt 0.195602 0.256224
vt 0.237651 0.256224
vt 0.195602 0.298273
vt 0.237651 0.298273
vt 0.195602 0.340321
vt 0.237651 0.340321
vt 0.195602 0.382370
vt 0.237651 0.382370
vt 0.195602 0.424419
vt 0.237651 0.424419
vt 0.279700 0.256224
vt 0.279700 0.298273
vt 0.153553 0.256224
vt 0.153553 0.298273
vt 0.195602 0.256224
vt 0.237651 0.256224
vt 0.237651 0.298273
vt 0.195602 0.298273
vt 0.012526 0.665694
vt 0.141853 0.665694
vt 0.141853 0.739124
vt 0.012526 0.739124
vn 0.039372 0.000001 0.999225
vn 0.039372 0.000001 0.999225
vn 0.039372 -0.000001 0.999225
vn 0.039372 -0.000001 0.999225
vn 0.000000 1.000000 0.000000
vn 0.000000 1.000000 0.000000
vn 0.000000 1.000000 0.000000
vn 0.000000 1.000000 0.000000
vn -0.039372 0.000000 -0.999225
vn -0.039372 0.000000 -0.999225
vn -0.039372 0.000000 -0.999225
vn -0.039372 0.000000 -0.999225
vn 0.000000 -1.000000 0.000000
vn 0.000000 -1.000000 0.000000
vn 0.000000 -1.000000 0.000000
vn 0.000000 -1.000000 0.000000
vn 0.999225 0.000000 -0.039373
vn 0.999225 0.000000 -0.039373
vn 0.999225 0.000000 -0.039373
vn 0.999225 0.000000 -0.039373
vn -0.999225 0.000000 0.039372
vn -0.999225 0.000000 0.039372
vn -0.999225 0.000000 0.039372
vn -0.999225 0.000000 0.039372
vn 0.039374 0.000002 0.999225
vn 0.039372 0.000002 0.999225
vn 0.039372 -0.000002 0.999225
vn 0.039374 -0.000002 0.999225
s 1
g pCube3
usemtl lambert4SG
f 9/19/1 10/20/2 11/21/3 12/22/4
s off
f 3/3/5 4/4/6 6/6/7 5/5/8
f 5/5/9 6/6/10 8/8/11 7/7/12
f 7/7/13 8/8/14 2/10/15 1/9/16
f 2/2/17 8/11/18 6/12/19 4/4/20
f 7/13/21 1/1/22 3/3/23 5/14/24
s 1
f 1/1/25 2/2/26 10/16/2 9/15/1
f 2/2/26 4/4/27 11/17/3 10/16/2
f 4/4/27 3/3/28 12/18/4 11/17/3
f 3/3/28 1/1/25 9/15/1 12/18/4
