# This file uses centimeters as units for non-parametric coordinates.

mtllib Rubble.mtl
g default
v 753.117318 0.000001 108.708493
v 850.279427 0.000005 108.708493
v 850.279427 82.100572 -470.025577
v 850.279427 0.000005 -470.025577
v 1006.532479 0.000005 108.708493
v 1006.532479 82.100572 -470.025577
v 1006.532479 0.000005 -470.025577
v 1186.958993 0.000005 108.708493
v 1215.088143 16.764886 113.307889
v 519.113595 -26.246295 -303.633517
v 563.848763 -26.246295 -303.633517
v 850.279427 82.100572 -263.691836
v 1006.532479 82.100572 -263.691836
v 1260.023812 16.764894 -259.092441
v 1350.908700 -22.952289 -240.071124
v 1090.194588 0.000005 -263.691836
v 1006.532479 0.000005 -263.691836
v 850.279427 0.000005 -263.691836
v 616.977730 -24.014216 -291.536563
v 572.242623 -24.014216 -291.536563
v 563.848763 -26.246295 -63.210750
v 850.279427 82.100572 -23.269061
v 1090.194588 0.000005 -23.269076
v 1006.532479 0.000005 -23.269076
v 850.279427 0.000005 -23.269076
v 616.977730 -24.014216 -51.113803
v 1148.334725 0.000005 108.708493
v 1148.334725 82.100572 108.708493
v 572.242623 -24.014216 -416.427310
v 616.977730 -24.014216 -416.427310
v 850.279427 0.000005 -388.582553
v 1006.532479 0.000005 -388.582553
v 1350.908700 -22.952289 -364.961856
v 1379.037972 -6.187407 -360.362460
v 1006.532479 82.100572 -388.582553
v 850.279427 82.100572 -388.582553
v 563.848763 -26.246295 -428.524234
v 655.253121 -2.232078 -400.679507
v 995.399117 82.100572 -388.582553
v 798.379403 70.740327 170.786099
v 789.605843 -9.571166 45.498807
v 885.652840 16.720265 144.571073
v 895.541512 70.740312 170.786099
v 662.239815 -12.653964 -559.947940
v 745.250374 59.845532 -470.762271
v 885.652779 91.671731 -427.943240
v 885.652779 42.357270 -479.871646
v 569.456002 -33.585376 -353.917239
v 653.466256 -59.876819 -450.191257
v 813.351998 -35.862597 -267.319003
v 569.456002 -33.585376 -387.317874
v 671.504159 73.670304 -484.587039
v 588.493660 -26.478717 -573.772708
v 705.595589 39.743306 -307.544681
v 813.351998 117.963178 -163.462131
v 736.476815 33.630521 -330.586612
v 705.595589 39.743302 -274.144107
v 588.493660 -99.916598 83.328275
v 671.504159 0.232430 172.513913
v 1063.942513 -9.571158 45.498807
v 1051.794564 70.740312 170.786099
v 1135.456673 -62.077617 97.348233
v 1135.456673 70.740319 170.786099
v 1135.456673 117.963162 -336.654117
v 1063.942391 117.963162 -318.489688
v 1063.942513 117.963147 -163.462131
v 1135.456673 117.963162 -211.763415
v 1063.942391 91.671731 -427.943240
v 1063.942391 42.357270 -479.871646
v 1135.456673 144.178189 -458.665317
v 1135.456673 11.360259 -532.103213
v 1139.727791 -35.862582 -267.318942
v 1023.793221 -35.862582 -420.048038
v 1063.942391 -35.862582 -422.346499
v 1135.456673 -35.862582 -440.510989
v 1260.350350 52.627477 -332.054721
v 1221.725960 52.627477 -332.054721
v 1221.725960 52.627477 -207.164035
v 1260.350350 52.627477 -207.164035
v 1193.596688 11.360259 -532.103213
v 1221.725960 78.842500 -454.065921
v 1260.350350 78.842500 -454.065921
v 1351.235238 -11.592029 -508.482516
v 1351.235238 -58.814883 -291.999515
v 1193.596688 -35.862582 -315.620242
v 1193.596688 -35.862582 -440.510989
v 1351.235238 -58.814883 -416.890262
v 1350.179085 -32.523448 69.119504
v 1231.164925 39.743299 97.427213
v 1408.570321 -61.898341 97.837369
v 1289.556160 47.608727 147.654508
v 1308.105965 26.336045 -269.544711
v 1308.105965 26.336045 -302.945285
v 1317.685433 55.710927 -430.934360
v 1289.556160 34.491838 -508.971621
v 1279.976815 42.357270 -359.473117
v 1279.976815 42.357270 -326.072513
v 661.899544 55.131726 16.562390
v 789.605843 117.963162 -16.679049
v 843.244515 117.963147 -10.732974
v 885.652840 117.963147 -16.679065
v 1051.794564 117.963162 28.659360
v 1135.456673 117.963162 28.659360
v 1221.725960 52.627477 33.258756
v 1260.350350 52.627477 33.258756
v 1317.387703 10.118440 33.258756
v 1289.258431 6.646436 -75.197497
v 1351.235238 -58.814883 -51.576785
v 1193.596688 -35.862582 -75.197497
v 813.351937 -35.862597 -120.535922
v 578.889046 -81.378039 -103.042239
v 1196.862801 39.743299 97.427213
v 1196.862679 -9.571155 45.498807
v 1023.793221 -35.862582 35.156034
v 1139.727791 -35.862582 -120.535922
v 885.652779 -35.862582 -508.609897
v 885.652779 117.963162 -404.753055
v 1085.505745 117.963162 -404.753085
vt 0.338144 0.655281
vt 0.375511 0.655281
vt 0.338144 0.692648
vt 0.375511 0.692648
vt 0.338144 0.730015
vt 0.375511 0.730015
vt 0.338144 0.767382
vt 0.375511 0.767382
vt 0.338144 0.804749
vt 0.375511 0.804749
vt 0.412878 0.655281
vt 0.412878 0.692648
vt 0.082108 0.716493
vt 0.079999 0.716493
vt 0.341337 0.655281
vt 0.341337 0.804749
vt 0.341337 0.767382
vt 0.341337 0.730015
vt 0.341337 0.692648
vt 0.348272 0.655281
vt 0.348272 0.804749
vt 0.348272 0.692648
vt 0.348272 0.730015
vt 0.348272 0.767382
vt 0.359425 0.655281
vt 0.359425 0.804749
vt 0.359425 0.692648
vt 0.359425 0.730015
vt 0.359425 0.767382
vt 0.365397 0.655281
vt 0.365397 0.804749
vt 0.365397 0.692648
vt 0.365397 0.730015
vt 0.365397 0.767382
vt 0.372303 0.655281
vt 0.372303 0.804749
vt 0.372303 0.692648
vt 0.372303 0.730015
vt 0.372303 0.767382
vt 0.314099 0.692648
vt 0.338144 0.716693
vt 0.341337 0.716693
vt 0.348272 0.716693
vt 0.052514 0.716493
vt 0.365397 0.716693
vt 0.372303 0.716693
vt 0.375511 0.716693
vt 0.399556 0.692648
vt 0.375511 0.780705
vt 0.399556 0.655281
vt 0.372303 0.780705
vt 0.365397 0.780705
vt 0.359425 0.780705
vt 0.348272 0.780705
vt 0.341337 0.780705
vt 0.314099 0.655281
vt 0.338144 0.780705
vt 0.329622 0.692648
vt 0.338144 0.701169
vt 0.341337 0.701169
vt 0.348272 0.701169
vt 0.359425 0.701169
vt 0.365397 0.701169
vt 0.372303 0.701169
vt 0.375511 0.701169
vt 0.384032 0.692648
vt 0.375511 0.796228
vt 0.384032 0.655281
vt 0.372303 0.796228
vt 0.365397 0.796228
vt 0.359425 0.796228
vt 0.348272 0.796228
vt 0.341337 0.796228
vt 0.329622 0.655281
vt 0.338144 0.796228
vt 0.369547 0.655281
vt 0.369547 0.804749
vt 0.369547 0.796228
vt 0.369547 0.780705
vt 0.369547 0.767382
vt 0.369547 0.730015
vt 0.369547 0.716693
vt 0.369547 0.701169
vt 0.369547 0.692648
vt 0.306035 0.655281
vt 0.338144 0.772641
vt 0.341337 0.772641
vt 0.348272 0.772641
vt 0.359425 0.772641
vt 0.365397 0.772641
vt 0.369547 0.772641
vt 0.372303 0.772641
vt 0.375511 0.772641
vt 0.407619 0.655281
vt 0.375511 0.724757
vt 0.407619 0.692648
vt 0.372303 0.724757
vt 0.369547 0.724757
vt 0.365397 0.724757
vt 0.052514 0.716493
vt 0.348272 0.724757
vt 0.341337 0.724757
vt 0.306035 0.692648
vt 0.338144 0.724757
vt 0.358630 0.724757
vt 0.341337 0.655281
vt 0.348272 0.655281
vt 0.348272 0.730015
vt 0.348272 0.767382
vt 0.341337 0.772641
vt 0.341337 0.780705
vt 0.338144 0.780705
vt 0.338144 0.772641
vt 0.341337 0.716693
vt 0.341337 0.724757
vt 0.338144 0.724757
vt 0.338144 0.716693
vt 0.359425 0.655281
vt 0.359425 0.724757
vt 0.359425 0.716693
vt 0.359425 0.767382
vt 0.359425 0.730015
vt 0.365397 0.780705
vt 0.359425 0.780705
vt 0.359425 0.772641
vt 0.372303 0.692648
vt 0.372303 0.655281
vt 0.375511 0.716693
vt 0.375511 0.724757
vt 0.375511 0.772641
vt 0.375511 0.780705
vt 0.341337 0.701169
vt 0.348272 0.716693
vt 0.348272 0.701169
vt 0.399556 0.655281
vt 0.399556 0.692648
vt 0.341337 0.796228
vt 0.314099 0.692648
vt 0.314099 0.655281
vt 0.369547 0.692648
vt 0.372303 0.804749
vt 0.369547 0.804749
vt 0.359425 0.804749
vt 0.359425 0.796228
vt 0.365397 0.796228
vt 0.341337 0.804749
vt 0.369547 0.655281
vt 0.348272 0.772641
vt 0.407619 0.692648
vt 0.407619 0.655281
vt 0.348272 0.724757
vt 0.358630 0.724757
vt 0.306035 0.655281
vt 0.306035 0.692648
vt 0.082108 0.716493
vt 0.052514 0.700943
vt 0.052514 0.716493
vt 0.082108 0.716493
vt 0.082108 0.700943
vt 0.117538 0.703094
vt 0.122865 0.715876
vt 0.130181 0.715876
vt 0.147394 0.698747
vt 0.139226 0.705931
vt 0.130181 0.710910
vt 0.130181 0.710910
vt 0.139226 0.705931
vt 0.135656 0.702202
vt 0.147394 0.689803
vt 0.147394 0.689803
vt 0.133898 0.708965
vt 0.106526 0.723285
vt 0.090680 0.723285
vt 0.090680 0.714341
vt 0.106526 0.714341
vt 0.002932 0.695928
vt -0.000674 0.694582
vt 0.025111 0.708470
vt 0.018654 0.714896
vt 0.092981 0.723285
vt 0.092981 0.723285
vt -0.001736 0.695972
vt -0.001736 0.695972
vt 0.045520 0.723285
vt 0.041022 0.723285
vt 0.051181 0.723285
vt 0.097065 0.723285
vt 0.525471 0.689468
vt 0.525471 0.700174
vt 0.540996 0.711573
vt 0.540996 0.682739
vt 0.486765 0.705882
vt 0.465914 0.705882
vt 0.467819 0.695630
vt 0.488912 0.695630
vt 0.559725 0.691698
vt 0.559725 0.691698
vt 0.540996 0.705882
vt 0.540996 0.705882
vt 0.447676 0.688901
vt 0.454380 0.687574
vt 0.456285 0.693265
vt 0.440275 0.696266
vn 0.215846 -0.797410 0.563514
vn 0.344081 -0.788511 0.509764
vn -0.020433 -0.741200 0.670973
vn 0.017929 -0.742658 0.669431
vn -0.243924 0.969794 0.000000
vn -0.353800 0.935321 0.000000
vn -0.353800 0.935321 0.000000
vn -0.257514 0.965412 -0.040808
vn 0.117120 0.670299 -0.732791
vn 0.066015 0.724821 -0.685768
vn 0.048971 0.741637 -0.669011
vn 0.048971 0.741637 -0.669011
vn 0.062105 -0.998070 0.000000
vn 0.102391 -0.994744 0.000000
vn 0.102391 -0.994744 0.000000
vn 0.054509 -0.982324 0.179075
vn 0.615903 0.747693 0.248230
vn 0.615903 0.747693 0.248230
vn 0.615903 0.747693 0.248230
vn 0.615903 0.747693 0.248230
vn -0.513905 0.827628 -0.225686
vn -0.527757 0.819930 -0.221781
vn -0.523341 0.822416 -0.223037
vn -0.513905 0.827628 -0.225686
vn -0.138307 -0.989224 0.048022
vn -0.064504 -0.949365 -0.307481
vn 0.104197 -0.989924 -0.095886
vn 0.073567 -0.996421 -0.041641
vn 0.141204 0.642418 -0.753234
vn 0.141204 0.642418 -0.753234
vn -0.455940 0.880850 -0.127365
vn -0.475319 0.874106 -0.100052
vn 0.022199 0.998397 0.052068
vn 0.168867 0.985216 0.028872
vn 0.434581 -0.772102 0.463678
vn 0.434581 -0.772102 0.463678
vn -0.165449 -0.712386 0.682007
vn -0.092409 -0.725410 0.682085
vn -0.162283 0.986701 -0.009202
vn -0.010159 0.999948 -0.001228
vn -0.146398 0.983000 -0.110813
vn 0.000000 0.000000 -1.000000
vn 0.000000 0.000000 -1.000000
vn 0.024565 0.095121 -0.995163
vn 0.015270 0.059128 -0.998134
vn -0.029293 -0.998838 0.038282
vn -0.054939 -0.975493 0.213063
vn 0.052049 -0.649351 0.758706
vn -0.113152 -0.660739 0.742038
vn 0.310375 0.948772 0.059158
vn -0.119638 0.991454 -0.052016
vn -0.058886 0.994413 -0.087609
vn 0.392912 0.919576 0.000000
vn -0.490599 0.494067 -0.717782
vn -0.490599 0.494067 -0.717782
vn -0.135967 0.566808 -0.812552
vn -0.004713 0.573708 -0.819047
vn -0.208583 -0.976078 0.061364
vn -0.120440 -0.980163 0.157399
vn -0.008088 -0.843843 -0.536529
vn -0.131789 -0.953770 -0.270101
vn -0.061478 -0.028923 0.997689
vn -0.061478 -0.028923 0.997689
vn -0.061478 -0.028923 0.997689
vn -0.061478 -0.028923 0.997689
vn 0.181013 0.971835 0.150900
vn 0.454591 0.886188 0.089541
vn 0.464491 0.885578 0.000000
vn 0.399321 0.916756 0.010045
vn 0.230027 0.606446 -0.761125
vn 0.218402 0.618788 -0.754587
vn 0.159070 0.672055 -0.723214
vn 0.156652 0.672240 -0.723570
vn 0.543950 -0.838719 0.025856
vn -0.109637 -0.993972 -0.000000
vn -0.075326 -0.971226 -0.225932
vn 0.449920 -0.874121 -0.182987
vn -0.445348 -0.775504 0.447502
vn -0.445348 -0.775505 0.447502
vn -0.445348 -0.775504 0.447502
vn -0.445348 -0.775505 0.447502
vn 0.333464 0.930954 0.148747
vn 0.549808 0.835194 0.012784
vn -0.372454 0.615079 -0.694951
vn -0.372454 0.615079 -0.694951
vn 0.781645 0.623266 0.023899
vn 0.786940 0.611577 0.081846
vn -0.452567 0.885494 0.105280
vn -0.367613 0.926599 0.079211
vn -0.353800 0.935321 0.000000
vn -0.353800 0.935321 0.000000
vn -0.060747 0.986829 -0.149930
vn -0.011694 0.989035 0.147218
vn -0.016342 0.985623 0.168166
vn 0.353011 0.929648 0.105532
vn 0.469656 0.879960 0.071370
vn 0.352068 0.935918 0.010285
vn 0.507921 0.861394 0.004074
vn 0.697912 0.701431 -0.144612
vn 0.272093 -0.950327 -0.151144
vn 0.024426 -0.996158 -0.084100
vn 0.024426 -0.996158 -0.084100
vn 0.784012 0.620548 0.015681
vn 0.286484 -0.953271 0.095923
vn -0.034130 -0.998265 0.047978
vn 0.000000 -1.000000 0.000000
vn 0.000000 -1.000000 0.000000
vn -0.238083 -0.964093 0.117644
vn 0.052113 -0.998598 0.009281
vn 0.097169 -0.995238 0.007698
vn 0.188822 -0.980466 -0.055077
vn 0.199953 -0.978699 -0.046554
vn -0.691379 0.722492 -0.000455
vn -0.691379 0.722492 -0.000455
vn -0.736036 0.676179 0.032156
vn -0.796810 0.598693 0.081614
vn -0.415034 0.865758 0.279662
vn -0.247703 0.930146 0.271056
vn -0.023772 0.964240 0.263962
vn -0.026721 0.957071 0.288619
vn 0.204011 0.924570 0.321791
vn 0.561794 0.776772 0.284627
vn 0.215209 0.975969 0.034208
vn 0.301270 0.952892 -0.035111
vn 0.671209 0.728894 -0.134874
vn 0.671209 0.728894 -0.134874
vn -0.007482 -0.988680 0.149856
vn 0.925180 0.141661 -0.352099
vn 0.018912 -0.990673 0.134943
vn -0.285618 -0.955302 0.076291
vn -0.316403 -0.942474 0.107855
vn 0.052683 -0.998580 0.007861
vn 0.052803 -0.998324 0.023696
vn 0.036158 -0.998992 0.026620
vn 0.000000 -1.000000 0.000000
vn 0.068178 -0.996410 0.050193
vn 0.301425 -0.952917 0.033060
vn 0.301425 -0.952917 0.033060
vn -0.866863 0.475257 0.150600
vn -0.866863 0.475257 0.150600
vn 0.684561 -0.413311 0.600458
vn 0.684561 -0.413311 0.600458
vn -0.167667 -0.970351 -0.174089
vn -0.004289 -0.812841 -0.582470
vn 0.179824 -0.392144 -0.902156
vn 0.188424 -0.360084 -0.913694
vn -0.006199 -0.399621 -0.916660
vn -0.224640 -0.814004 -0.535662
vn -0.042690 -0.888010 -0.457838
vn 0.809597 -0.391116 -0.437700
vn 0.771726 0.625180 0.116572
vn 0.208465 -0.976780 -0.049424
vn 0.208465 -0.976780 -0.049424
vn 0.208465 -0.976780 -0.049424
vn 0.208465 -0.976780 -0.049424
vn 0.158009 0.966309 0.203177
vn 0.283723 0.939118 0.193801
vn 0.460882 0.867660 0.186423
vn 0.299692 0.945842 0.124771
vn -0.167927 0.922731 -0.346940
vn -0.247686 0.931945 -0.264820
vn -0.216912 0.923418 -0.316622
vn 0.195844 0.553428 -0.809545
vn -0.075233 0.995036 0.065147
vn 0.242596 0.958930 0.146969
vn -0.661502 0.744017 0.094093
vn -0.661502 0.744017 0.094093
vn -0.661502 0.744017 0.094093
vn -0.661502 0.744017 0.094093
vn -0.009018 0.989826 -0.141999
vn -0.114224 0.992623 -0.040662
vn -0.114224 0.992623 -0.040662
vn -0.003600 0.989111 -0.147131
vn -0.152233 -0.363214 0.919185
vn -0.152233 -0.363214 0.919185
vn -0.152233 -0.363214 0.919185
vn -0.152233 -0.363214 0.919185
vn 0.190770 0.966003 -0.174483
vn 0.108839 0.991964 -0.064517
vn 0.083983 0.995970 -0.031463
vn 0.190770 0.966003 -0.174483
vn -0.960132 0.279546 0.000000
vn -0.960132 0.279546 0.000000
vn 0.433479 -0.895433 0.101470
vn 0.346906 -0.921469 0.174790
vn 0.346906 -0.921469 0.174790
vn 0.489061 -0.870771 0.050766
vn 0.453766 -0.875521 -0.166007
vn -0.154021 0.968814 -0.194108
vn -0.234346 0.943115 -0.235831
vn 0.482983 -0.831078 -0.275746
vn 0.283319 -0.008633 0.958987
vn 0.283319 -0.008633 0.958987
vn 0.283319 -0.008633 0.958987
vn 0.283319 -0.008633 0.958987
vn -0.515388 0.856928 -0.007049
vn 0.094481 0.365854 -0.925864
vn 0.094481 0.365853 -0.925864
vn -0.936011 -0.191265 -0.295466
vn -0.936011 -0.191265 -0.295466
vn -0.936011 -0.191265 -0.295466
vn -0.936011 -0.191265 -0.295466
vn 0.292477 -0.054314 0.954729
vn 0.292477 -0.054314 0.954729
vn 0.292477 -0.054314 0.954729
vn 0.292477 -0.054314 0.954729
vn 0.282719 -0.641833 0.712826
vn 0.282719 -0.641833 0.712826
vn 0.282719 -0.641833 0.712826
vn 0.282719 -0.641833 0.712826
vn -0.677350 -0.735661 0.000000
vn -0.677350 -0.735661 0.000000
vn -0.677350 -0.735661 0.000000
vn -0.677350 -0.735661 0.000000
vn 0.509551 -0.859873 0.031249
vn 0.509551 -0.859873 0.031249
vn -0.953466 -0.247315 0.172447
vn -0.953466 -0.247315 0.172447
vn -0.953466 -0.247315 0.172447
vn -0.953466 -0.247315 0.172447
vn -0.490733 -0.815968 -0.305578
vn -0.490733 -0.815968 -0.305578
vn -0.490733 -0.815968 -0.305578
vn -0.490733 -0.815968 -0.305578
vn 0.039132 0.997577 -0.057517
vn 0.045819 0.998174 -0.039350
vn 0.438737 -0.833035 0.336990
vn 0.438737 -0.833035 0.336990
vn 0.034379 0.236593 -0.971001
vn 0.034379 0.236593 -0.971001
vn 0.034379 0.236593 -0.971001
vn 0.034379 0.236593 -0.971001
vn -0.439448 0.389387 -0.809483
vn 0.441174 0.720073 0.535594
vn 0.441174 0.720073 0.535594
vn -0.354979 0.592437 -0.723193
vn -0.133266 -0.982789 0.127933
vn -0.133266 -0.982789 0.127933
vn -0.484010 -0.825921 0.289117
vn -0.484010 -0.825921 0.289117
vn -0.608616 -0.144243 -0.780244
vn -0.608616 -0.144243 -0.780244
vn -0.608616 -0.144243 -0.780244
vn -0.608616 -0.144243 -0.780244
vn -0.586442 -0.809991 0.000000
vn -0.586442 -0.809991 0.000000
vn -0.459376 0.326427 -0.826087
vn -0.459376 0.326427 -0.826087
vn 0.121034 -0.876756 0.465457
vn 0.121034 -0.876756 0.465457
vn 0.009866 -0.907055 0.420897
vn -0.096059 -0.923035 0.372532
vn 0.000000 0.226416 0.974031
vn 0.000000 0.226416 0.974031
vn 0.000000 0.226416 0.974031
vn 0.000000 0.226416 0.974031
vn 0.328356 0.891171 -0.313044
vn 0.328356 0.891171 -0.313044
vn 0.328356 0.891171 -0.313044
vn 0.328356 0.891171 -0.313044
vn 0.000000 0.411048 0.911614
vn 0.000000 0.411048 0.911614
vn 0.000000 0.411048 0.911614
vn 0.000000 0.411048 0.911614
vn -0.421571 0.905362 -0.050972
vn 0.000000 0.975098 -0.221775
vn 0.000000 0.975098 -0.221775
vn 0.000000 0.975098 -0.221775
vn 0.000000 0.975098 -0.221775
vn 0.406557 -0.912964 0.034759
vn 0.406557 -0.912964 0.034759
vn 0.406557 -0.912964 0.034759
vn 0.406557 -0.912964 0.034759
vn 0.373429 -0.925401 0.064684
vn 0.373429 -0.925401 0.064684
s 1
g pCube4
usemtl lambert5SG
f 40/19/1 41/106/2 42/107/3 43/22/4
s 2
f 36/101/5 37/102/6 11/42/7 12/43/8
s 3
f 44/17/9 45/18/10 46/108/11 47/109/12
s 4
f 18/54/13 19/55/14 30/87/15 31/88/16
s off
f 14/48/17 15/50/18 33/94/19 34/96/20
s 5
f 38/103/21 29/85/22 20/56/23 10/40/24
s 4
f 48/113/25 49/110/26 50/111/27 51/112/28
s 3
f 52/5/29 45/18/10 44/17/9 53/7/30
s 2
f 54/117/31 55/114/32 56/115/33 57/116/34
s 1
f 58/1/35 41/106/2 40/19/1 59/3/36
f 43/22/4 42/107/3 60/118/37 61/27/38
s 2
f 35/13/39 39/14/40 36/44/5 12/100/8 13/155/41
s 8
f 4/156/42 3/157/43 6/158/44 7/159/45
s 4
f 17/53/46 18/54/13 31/88/16 32/89/47
s 1
f 61/27/38 60/118/37 62/30/48 63/32/49
s 2
f 64/99/50 65/119/51 66/120/52 67/45/53
s 10
f 69/188/54 68/189/55 70/190/56 71/191/57
s 4
f 72/123/58 73/124/59 74/125/60 75/90/61
s off
f 28/84/62 27/76/63 8/35/64 9/37/65
s 2
f 76/97/66 77/98/67 78/82/68 79/46/69
s 10
f 80/160/70 81/161/71 82/162/72 83/163/73
s 4
f 84/51/74 85/79/75 86/91/76 87/92/77
s off
f 89/126/78 88/127/79 90/2/80 91/4/81
s 2
f 92/164/82 76/165/66 79/166/69 93/167/83
s 10
f 83/39/73 82/38/72 94/6/84 95/8/85
s 4
f 96/131/86 84/51/74 87/92/77 97/130/87
s 2
f 98/59/88 99/132/89 55/114/32 54/117/31
f 12/43/8 11/42/7 21/60/90 22/61/91
f 66/120/52 100/133/92 101/134/93 102/62/94
f 67/45/53 66/120/52 102/62/94 103/63/95
f 79/46/69 78/82/68 104/83/96 105/64/97
f 93/128/83 79/46/69 105/64/97 106/65/98
s 14
f 106/66/99 107/68/100 96/135/101 93/136/102
s 4
f 107/168/103 108/169/104 84/170/74 96/171/86
f 108/69/104 109/78/105 85/79/75 84/51/74
f 23/70/106 24/71/107 17/53/46 16/52/108
f 24/71/107 25/72/109 18/54/13 17/53/46
f 25/72/109 26/73/110 19/55/14 18/54/13
f 51/112/28 50/111/27 110/137/111 111/75/112
s 15
f 54/138/113 51/139/114 111/74/115 98/58/116
s 2
f 59/3/117 40/19/118 99/132/89 98/59/88
f 101/192/93 99/193/89 40/194/118 43/195/119
f 102/62/94 101/134/93 43/22/119 61/27/120
f 103/172/95 102/173/94 61/174/120 63/175/121
f 105/64/97 104/83/96 112/140/122 89/126/123
f 106/65/98 105/64/97 89/126/123 91/4/124
s 14
f 90/2/125 107/68/100 106/66/99 91/4/126
s 4
f 88/36/127 108/69/104 107/67/103 90/10/128
f 113/142/129 109/78/105 108/69/104 88/141/127
f 60/143/130 114/144/131 115/145/132 62/31/133
f 2/21/134 25/72/109 24/71/107 5/26/135
f 1/16/136 26/73/110 25/72/109 2/21/134
f 111/75/112 110/137/111 41/146/137 58/9/138
s 15
f 98/58/116 111/74/115 58/1/139 59/3/140
s 4
f 62/31/133 115/145/132 109/78/105 113/142/129
f 85/79/75 109/78/105 115/145/132 72/123/58
f 75/90/61 86/91/76 85/79/75 72/123/58
s 10
f 71/34/57 70/33/56 81/81/71 80/80/70
s 2
f 77/98/67 64/99/50 67/45/53 78/82/68
f 104/196/96 78/197/68 67/198/53 103/199/95
f 112/140/122 104/83/96 103/63/95 63/32/121
s 1
f 63/32/49 62/30/48 113/147/141 112/140/142
s 4
f 53/7/143 44/17/144 49/110/26 48/113/25
f 116/148/145 49/110/26 44/17/144 47/109/146
f 74/125/60 116/148/145 47/109/146 69/121/147
f 75/90/61 74/125/60 69/121/147 71/34/148
f 80/80/149 86/91/76 75/90/61 71/34/148
f 87/92/77 86/91/76 80/80/149 83/39/150
f 97/130/87 87/92/77 83/39/150 95/8/151
s off
f 92/149/152 97/150/153 95/11/154 94/12/155
s 2
f 82/38/156 76/97/66 92/129/82 94/6/157
f 81/81/158 77/98/67 76/97/66 82/38/156
f 70/33/159 64/99/50 77/98/67 81/81/158
f 68/122/160 65/119/51 64/99/50 70/33/159
f 46/108/161 117/151/162 118/152/163 65/119/51 68/122/160
f 45/18/164 56/115/33 117/151/162 46/108/161
f 57/200/34 56/201/33 45/202/164 52/203/165
s off
f 53/176/166 48/177/167 57/178/168 52/179/169
s 17
f 1/15/170 2/20/171 42/107/172 41/106/173
s off
f 3/23/174 4/24/175 47/109/176 46/108/177
s 17
f 30/87/178 19/55/179 50/111/180 49/110/181
s 5
f 20/57/23 29/86/22 48/113/182 51/112/183
s 19
f 11/42/184 37/102/185 56/115/186 55/114/187
s 20
f 38/104/188 10/41/189 54/117/190 57/116/191
s off
f 2/20/192 5/25/193 60/118/194 42/107/195
s 2
f 35/13/39 13/155/41 66/180/52 65/181/196
s 8
f 7/29/45 6/28/44 68/122/197 69/121/198
s 4
f 16/52/108 17/53/46 73/124/59 72/123/58
s off
f 17/53/199 32/89/200 74/125/201 73/124/202
f 9/37/203 8/35/204 88/127/205 89/126/206
f 14/47/207 34/95/208 92/129/209 93/128/210
f 33/93/211 15/49/212 96/131/213 97/130/214
s 19
f 21/182/215 11/183/184 55/184/187 99/185/216
s 2
f 13/155/41 12/100/8 100/186/92 66/180/52
s off
f 12/43/217 22/61/218 101/134/219 100/133/220
f 15/50/221 14/48/222 93/136/223 96/135/224
s 17
f 19/55/179 26/73/225 110/137/226 50/111/180
s 20
f 10/40/189 20/56/227 51/139/228 54/138/190
s off
f 22/61/229 21/60/230 99/132/231 101/134/232
s 21
f 28/84/233 9/37/234 89/126/235 112/140/236
s 4
f 8/36/237 27/77/238 113/142/129 88/141/127
f 5/26/239 24/71/240 114/144/131 60/143/130
s off
f 24/71/241 23/70/242 115/145/243 114/144/244
s 17
f 26/73/225 1/16/170 41/146/173 110/137/226
s 4
f 23/70/245 16/52/108 72/123/58 115/145/246
s 21
f 27/76/247 28/84/233 112/140/236 113/147/248
s 4
f 31/88/16 30/87/249 49/110/250 116/148/251
f 32/89/47 31/88/16 116/148/251 74/125/252
s off
f 4/24/253 7/29/254 69/121/255 47/109/256
f 34/96/257 33/94/258 97/150/259 92/149/260
f 36/101/261 39/105/262 118/152/263 117/151/264
s 2
f 39/14/40 35/13/39 65/181/196 118/187/265
s off
f 6/28/266 3/23/267 46/108/268 68/122/269
f 37/102/270 36/101/271 117/151/272 56/115/273
s 20
f 29/85/274 38/103/188 57/154/191 48/153/275
