# This file uses centimeters as units for non-parametric coordinates.

mtllib Wave.mtl
g default
v -763.151849 -111.424840 1161.307322
v -74.618981 -114.421040 1167.047800
v -763.151849 -94.032613 1161.307322
v -74.618981 -92.054341 1167.047800
v -763.151849 -94.032613 1121.165720
v -74.618981 -92.054341 1115.425242
v -763.151849 -111.424840 1121.165720
v -74.618981 -114.421040 1115.425242
v -598.246941 -0.000001 1184.003855
v -598.246941 -0.000001 1098.469187
v -598.246941 37.059928 1098.469187
v -598.246941 37.059928 1184.003855
v -249.665337 -0.000001 1184.003855
v -249.665337 37.059928 1184.003855
v -249.665337 37.059928 1098.469187
v -249.665337 -0.000001 1098.469187
v -763.151849 -105.710576 1161.307322
v -598.246941 12.176150 1184.003855
v -249.665337 12.176148 1184.003855
v -74.618981 -107.072392 1167.047800
v -74.618981 -107.072392 1115.425242
v -249.665337 12.176150 1098.469187
v -598.246941 12.176148 1098.469187
v -763.151849 -105.710576 1121.165720
vt 0.045632 0.311238
vt 0.066427 0.311238
vt 0.045632 0.332033
vt 0.066427 0.332033
vt 0.045632 0.352827
vt 0.066427 0.352827
vt 0.045632 0.373622
vt 0.066427 0.373622
vt 0.045632 0.394417
vt 0.066427 0.394417
vt 0.087221 0.311238
vt 0.087221 0.332033
vt 0.024837 0.311238
vt 0.024837 0.332033
vt 0.865471 0.586513
vt 0.052148 0.394417
vt 0.052148 0.373622
vt 0.052148 0.352827
vt 0.052148 0.332033
vt 0.897198 0.607951
vt 0.059907 0.394417
vt 0.059907 0.332033
vt 0.059907 0.352827
vt 0.059907 0.373622
vt 0.045632 0.318070
vt 0.052148 0.318070
vt 0.059907 0.318070
vt 0.066427 0.318070
vt 0.066427 0.366790
vt 0.087222 0.318070
vt 0.059907 0.366790
vt 0.052148 0.366790
vt 0.024837 0.318070
vt 0.045632 0.366790
vt 0.897198 0.610293
vt 0.865471 0.587613
vt 0.964264 0.610293
vt 0.964264 0.607951
vt 0.997942 0.587350
vt 0.997942 0.585937
vn -0.022928 0.000000 0.999737
vn -0.038892 0.000000 0.999243
vn 0.030277 0.000000 0.999542
vn 0.018764 0.000000 0.999824
vn -0.190870 0.981615 0.000000
vn -0.190870 0.981615 0.000000
vn 0.200018 0.979792 0.000000
vn 0.200018 0.979792 0.000000
vn 0.030277 0.000000 -0.999542
vn -0.038892 0.000000 -0.999243
vn -0.022928 0.000000 -0.999737
vn 0.018764 0.000000 -0.999824
vn 0.162550 -0.986700 0.000000
vn 0.162550 -0.986700 0.000000
vn -0.177762 -0.984074 0.000000
vn -0.177762 -0.984074 0.000000
vn 1.000000 0.000000 0.000000
vn 1.000000 0.000000 0.000000
vn 1.000000 0.000000 0.000000
vn 1.000000 0.000000 0.000000
vn -1.000000 0.000000 0.000000
vn -1.000000 0.000000 0.000000
vn -1.000000 0.000000 0.000000
vn -1.000000 0.000000 0.000000
vn 0.559866 -0.828583 0.000000
vn 0.559866 -0.828583 0.000000
vn -0.136349 0.000000 -0.990661
vn -0.136349 0.000000 -0.990661
vn -0.622286 0.782790 0.000000
vn -0.622286 0.782790 0.000000
vn -0.136349 0.000000 0.990661
vn -0.136349 0.000000 0.990661
vn 0.096415 0.000000 0.995341
vn 0.096415 0.000000 0.995341
vn 0.593595 0.804764 0.000000
vn 0.593595 0.804764 0.000000
vn 0.096415 0.000000 -0.995341
vn 0.096415 0.000000 -0.995341
vn -0.547141 -0.837041 0.000000
vn -0.547141 -0.837041 0.000000
vn -0.136349 0.000000 0.990661
vn -0.044472 0.000000 0.999011
vn 0.034370 0.000000 0.999409
vn 0.096415 0.000000 0.995341
vn 1.000000 0.000000 0.000000
vn 1.000000 0.000000 0.000000
vn 0.034370 0.000000 -0.999409
vn 0.096415 0.000000 -0.995341
vn -0.044472 0.000000 -0.999011
vn -0.136349 0.000000 -0.990661
vn -1.000000 0.000000 0.000000
vn -1.000000 0.000000 0.000000
s 1
g pCube20
usemtl lambert15SG
f 12/19/1 18/26/2 19/27/3 14/22/4
s 2
f 11/18/5 12/19/6 14/22/7 15/23/8
s 3
f 22/31/9 23/32/10 11/18/11 15/23/12
s 4
f 9/16/13 10/17/14 16/24/15 13/21/16
s 5
f 20/28/17 21/30/18 6/12/19 4/4/20
s 6
f 24/33/21 17/25/22 3/3/23 5/14/24
s 4
f 7/7/25 10/17/14 9/16/13 1/9/26
s 3
f 5/5/27 11/18/11 23/32/10 24/34/28
s 2
f 3/3/29 12/19/6 11/18/5 5/5/30
s 1
f 17/25/31 18/26/2 12/19/1 3/3/32
f 14/22/4 19/27/3 20/28/33 4/4/34
s 2
f 15/23/8 14/22/7 4/4/35 6/6/36
s 3
f 21/29/37 22/31/9 15/23/12 6/6/38
s 4
f 13/21/16 16/24/15 8/8/39 2/10/40
s 1
f 1/15/41 9/20/42 18/35/2 17/36/31
f 19/37/3 18/35/2 9/20/42 13/38/43
f 20/39/33 19/37/3 13/38/43 2/40/44
s 5
f 2/2/45 8/11/46 21/30/18 20/28/17
s 3
f 16/24/47 22/31/9 21/29/37 8/8/48
f 10/17/49 23/32/10 22/31/9 16/24/47
f 24/34/28 23/32/10 10/17/49 7/7/50
s 6
f 7/13/51 1/1/52 17/25/22 24/33/21
