# This file uses centimeters as units for non-parametric coordinates.

mtllib Wall_House.mtl
g default
v -526.366915 -7.506724 -545.773948
v 581.550687 -7.506724 -545.773948
v -526.366915 525.622548 -545.773948
v 581.550687 525.622548 -545.773948
v -526.366915 525.622548 -566.559837
v 581.550687 525.622548 -566.559837
v -526.366915 -7.506724 -566.559837
v 581.550687 -7.506724 -566.559837
v -526.366915 38.295717 -545.773948
v 581.550687 38.295717 -545.773948
v 581.550687 38.295521 -566.559837
v -526.366915 38.295521 -566.559837
v -376.887087 315.045048 -545.773948
v -13.074709 315.045048 -545.773948
v -13.074709 460.843136 -545.773948
v -376.887087 460.843136 -545.773948
v -355.169131 329.624886 -545.773948
v -34.792666 329.624886 -545.773948
v -34.792666 446.263299 -545.773948
v -355.169131 446.263299 -545.773948
vt 0.480594 0.476351
vt 0.510410 0.476351
vt 0.480594 0.506167
vt 0.510410 0.506167
vt 0.480594 0.535984
vt 0.510410 0.535984
vt 0.480594 0.565800
vt 0.510410 0.565800
vt 0.480594 0.595617
vt 0.510410 0.595617
vt 0.540227 0.476351
vt 0.540227 0.506167
vt 0.450777 0.476351
vt 0.450777 0.506167
vt 0.480594 0.478912
vt 0.510410 0.478912
vt 0.510410 0.563239
vt 0.540227 0.478912
vt 0.450777 0.478912
vt 0.480594 0.563239
vt 0.480594 0.478912
vt 0.510410 0.478912
vt 0.510410 0.506167
vt 0.480594 0.506167
vt 0.104770 0.363059
vt 0.252018 0.363059
vt 0.252018 0.497656
vt 0.104770 0.497656
vt 0.005916 0.677252
vt 0.134968 0.677252
vt 0.134968 0.682587
vt 0.005916 0.682587
vt 0.293392 0.852260
vt 0.432230 0.852260
vt 0.423942 0.857824
vt 0.301680 0.857824
vt 0.432230 0.907899
vt 0.423942 0.902336
vt 0.293392 0.907899
vt 0.301680 0.902336
vn -0.000000 0.000000 1.000000
vn 0.000000 0.000000 1.000000
vn 0.000000 0.000000 1.000000
vn -0.000000 0.000000 1.000000
vn 0.000000 1.000000 0.000000
vn 0.000000 1.000000 0.000000
vn 0.000000 1.000000 0.000000
vn 0.000000 1.000000 0.000000
vn 0.000000 0.000000 -1.000000
vn 0.000000 0.000000 -1.000000
vn 0.000000 0.000000 -1.000000
vn 0.000000 0.000000 -1.000000
vn 0.000000 -1.000000 0.000000
vn 0.000000 -1.000000 0.000000
vn 0.000000 -1.000000 0.000000
vn 0.000000 -1.000000 0.000000
vn 1.000000 0.000000 0.000000
vn 1.000000 0.000000 0.000000
vn 1.000000 0.000000 0.000000
vn 1.000000 0.000000 0.000000
vn -1.000000 0.000000 0.000000
vn -1.000000 0.000000 0.000000
vn -1.000000 0.000000 0.000000
vn -1.000000 0.000000 0.000000
vn 0.000000 0.000000 1.000000
vn 0.000000 0.000000 1.000000
vn 0.000000 0.000000 1.000000
vn -0.000000 0.000000 1.000000
vn 1.000000 0.000000 0.000000
vn 1.000000 0.000000 0.000000
vn 0.000000 0.000000 -1.000000
vn 0.000000 0.000000 -1.000000
vn -1.000000 0.000000 0.000000
vn -1.000000 0.000000 0.000000
vn 0.000000 0.000000 1.000000
vn -0.000000 0.000000 1.000000
vn 0.000000 0.000000 1.000000
vn 0.000000 0.000000 1.000000
vn -0.000000 0.000000 1.000000
vn -0.000000 0.000000 1.000000
s 1
g pCube5
usemtl lambert6SG
f 17/25/1 18/26/2 19/27/3 20/28/4
s off
f 3/3/5 4/4/6 6/6/7 5/5/8
s 2
f 5/5/9 6/6/10 11/17/11 12/20/12
s off
f 7/7/13 8/8/14 2/10/15 1/9/16
s 3
f 10/16/17 11/18/18 6/12/19 4/4/20
s 4
f 12/19/21 9/15/22 3/3/23 5/14/24
s 1
f 1/29/25 2/30/26 10/31/27 9/32/28
s 3
f 2/2/29 8/11/30 11/18/18 10/16/17
s 2
f 12/20/12 11/17/11 8/8/31 7/7/32
s 4
f 7/13/33 1/1/34 9/15/22 12/19/21
s 1
f 9/15/28 10/16/27 14/22/35 13/21/36
f 10/16/27 4/4/37 15/23/38 14/22/35
f 4/4/37 3/3/39 16/24/40 15/23/38
f 3/3/39 9/15/28 13/21/36 16/24/40
f 13/33/36 14/34/35 18/35/2 17/36/1
f 14/34/35 15/37/38 19/38/3 18/35/2
f 15/37/38 16/39/40 20/40/4 19/38/3
f 16/39/40 13/33/36 17/36/1 20/40/4
