# This file uses centimeters as units for non-parametric coordinates.

mtllib Road_side.mtl
g default
v -787.683566 -6.463042 417.561954
v 787.683566 -6.463042 417.561954
v -787.683566 13.102271 417.561954
v 787.683566 13.102271 417.561954
v -787.683566 13.102271 197.712817
v 787.683566 13.102271 197.712817
v -787.683566 -6.463042 197.712817
v 787.683566 -6.463042 197.712817
vt 0.024256 0.747572
vt 0.062906 0.747572
vt 0.062906 0.786229
vt 0.024256 0.786229
vt 0.063624 0.747572
vt 0.102281 0.747572
vt 0.102281 0.786229
vt 0.063624 0.786229
vt 0.063624 0.708053
vt 0.063624 0.669404
vt 0.102274 0.669404
vt 0.102274 0.708053
vt 0.052683 0.708493
vt 0.091339 0.708493
vt 0.091339 0.747149
vt 0.052683 0.747149
vt 0.024258 0.669406
vt 0.062915 0.669406
vt 0.062915 0.708062
vt 0.024258 0.708062
vt 0.091996 0.747131
vt 0.091996 0.708482
vt 0.130646 0.708482
vt 0.130646 0.747131
vn 0.000000 0.000000 1.000000
vn 0.000000 0.000000 1.000000
vn 0.000000 0.000000 1.000000
vn 0.000000 0.000000 1.000000
vn 0.000000 1.000000 0.000000
vn 0.000000 1.000000 0.000000
vn 0.000000 1.000000 0.000000
vn 0.000000 1.000000 0.000000
vn 0.000000 0.000000 -1.000000
vn 0.000000 0.000000 -1.000000
vn 0.000000 0.000000 -1.000000
vn 0.000000 0.000000 -1.000000
vn 0.000000 -1.000000 0.000000
vn 0.000000 -1.000000 0.000000
vn 0.000000 -1.000000 0.000000
vn 0.000000 -1.000000 0.000000
vn 1.000000 0.000000 0.000000
vn 1.000000 0.000000 0.000000
vn 1.000000 0.000000 0.000000
vn 1.000000 0.000000 0.000000
vn -1.000000 0.000000 0.000000
vn -1.000000 0.000000 0.000000
vn -1.000000 0.000000 0.000000
vn -1.000000 0.000000 0.000000
s off
g pCube3
usemtl lambert5SG
f 1/17/1 2/18/2 4/19/3 3/20/4
f 3/9/5 4/10/6 6/11/7 5/12/8
f 5/21/9 6/22/10 8/23/11 7/24/12
f 7/13/13 8/14/14 2/15/15 1/16/16
f 2/1/17 8/2/18 6/3/19 4/4/20
f 7/5/21 1/6/22 3/7/23 5/8/24
