# This file uses centimeters as units for non-parametric coordinates.

mtllib Shop_5.mtl
g default
v 617.603797 -16.350628 451.100094
v 1028.664919 -16.350628 451.100094
v 617.603797 322.143002 451.100094
v 1028.664919 322.143002 451.100094
v 617.603797 322.143002 409.912508
v 1028.664919 322.143002 409.912508
v 617.603797 -16.350628 409.912508
v 1028.664919 -16.350628 409.912508
v 617.603797 32.380607 451.100094
v 1028.664919 32.380607 451.100094
v 1028.664919 32.380607 409.912508
v 617.603797 32.380607 409.912508
v 704.456486 -16.350628 451.100094
v 704.456486 -16.350628 409.912508
v 642.053301 32.380607 409.912508
v 704.456486 322.143002 409.912508
v 704.456486 322.143002 451.100094
v 642.053301 32.380607 451.100094
v 712.384814 32.380607 409.912508
v 774.787995 -16.350628 409.912508
v 774.787995 -16.350628 451.100094
v 712.384814 32.380607 451.100094
v 774.787995 322.143002 451.100094
v 774.787995 322.143002 409.912508
v 617.603797 146.466717 409.912508
v 642.053301 146.466717 409.912508
v 712.384814 146.466717 409.912508
v 1028.664919 146.466717 409.912508
v 1028.664919 146.466717 451.100094
v 712.384814 146.466738 451.100094
v 642.053301 146.466717 451.100094
v 617.603797 146.466717 451.100094
v 802.743398 32.380607 409.912508
v 802.743398 -16.350628 409.912508
v 802.743398 -16.350628 451.100094
v 802.743398 32.380607 451.100094
v 802.743398 146.466738 451.100094
v 802.743398 322.143002 451.100094
v 802.743398 322.143002 409.912508
v 802.743401 146.466717 409.912508
v 617.603797 244.852290 409.912508
v 704.456486 244.852290 409.912508
v 774.787999 244.852290 409.912508
v 802.743400 244.852290 409.912508
v 1028.664919 244.852290 409.912508
v 1028.664919 244.852290 451.100094
v 802.743398 244.852290 451.100094
v 774.787999 244.852290 451.100094
v 704.456486 244.852290 451.100094
v 617.603797 244.852290 451.100094
v 1004.941580 32.380607 409.912508
v 1004.941580 -16.350628 409.912508
v 1004.941580 -16.350628 451.100094
v 1004.941580 32.380607 451.100094
v 1004.941580 146.466717 451.100094
v 1004.941580 244.852290 451.100094
v 1004.941580 322.143002 451.100094
v 1004.941580 322.143002 409.912508
v 1004.941580 244.852290 409.912508
v 1004.941580 146.466717 409.912508
v 617.603797 308.878913 409.912508
v 704.456486 308.878913 409.912508
v 774.787992 308.878913 409.912508
v 802.743400 308.878913 409.912508
v 1004.941580 308.878913 409.912508
v 1028.664919 308.878913 409.912508
v 1028.664919 308.878913 451.100094
v 1004.941580 308.878913 451.100094
v 802.743400 308.878913 451.100094
v 774.787995 308.878913 451.100094
v 704.456486 308.878913 451.100094
v 617.603797 308.878913 451.100094
v 704.456486 254.641826 409.912508
v 617.603797 254.641826 409.912508
v 617.603797 254.641826 451.100094
v 704.456486 254.641826 451.100094
v 774.787999 254.641826 451.100094
v 802.743400 254.641826 451.100094
v 1004.941580 254.641826 451.100094
v 1028.664919 254.641826 451.100094
v 1028.664919 254.641826 409.912508
v 1004.941580 254.641826 409.912508
v 802.743400 254.641826 409.912508
v 774.787999 254.641826 409.912508
v 995.717999 237.473397 409.912508
v 995.717999 145.877937 409.912508
v 811.966989 145.877937 409.912508
v 811.966986 237.473397 409.912508
v 811.966985 40.937059 409.912508
v 995.717999 40.937059 409.912508
v 646.155982 101.406962 409.912508
v 646.155982 140.896555 409.912508
v 708.282145 140.896555 409.912508
v 708.282145 101.406962 409.912508
v 708.398623 36.988061 409.912508
v 645.011055 36.988061 409.912508
v 647.290177 98.565596 409.912508
v 707.147937 98.565596 409.912508
vt 0.343585 0.257645
vt 0.384066 0.257645
vt 0.343585 0.298126
vt 0.384066 0.298126
vt 0.343585 0.338608
vt 0.384066 0.338608
vt 0.343585 0.379089
vt 0.384066 0.379089
vt 0.343585 0.419571
vt 0.384066 0.419571
vt 0.424548 0.257645
vt 0.424548 0.298126
vt 0.303103 0.257645
vt 0.303103 0.298126
vt 0.343585 0.263473
vt 0.384066 0.263473
vt 0.057308 0.330872
vt 0.424548 0.263473
vt 0.303103 0.263473
vt 0.057308 0.330872
vt 0.352138 0.257645
vt 0.352138 0.419571
vt 0.352138 0.379089
vt 0.486006 0.679438
vt 0.352138 0.338608
vt 0.352138 0.298126
vt 0.352138 0.263473
vt 0.486006 0.774477
vt 0.359064 0.379089
vt 0.359064 0.257645
vt 0.359064 0.419571
vt 0.359064 0.263473
vt 0.359064 0.298126
vt 0.359064 0.338608
vt 0.303103 0.277117
vt 0.057308 0.302215
vt 0.486006 0.769837
vt 0.486006 0.736941
vt 0.057308 0.302215
vt 0.424548 0.277117
vt 0.384066 0.277117
vt 0.359064 0.277117
vt 0.352138 0.277117
vt 0.343585 0.277117
vt 0.526354 0.711581
vt 0.361817 0.379089
vt 0.361817 0.257645
vt 0.361817 0.419571
vt 0.361817 0.263473
vt 0.361817 0.277117
vt 0.361817 0.298126
vt 0.361817 0.338608
vt 0.526354 0.674443
vt 0.303103 0.288883
vt 0.057308 0.302215
vt 0.057308 0.330872
vt 0.057308 0.330872
vt 0.526354 0.674220
vt 0.057308 0.302215
vt 0.424548 0.288883
vt 0.384066 0.288883
vt 0.361817 0.288883
vt 0.359064 0.288883
vt 0.352138 0.288883
vt 0.343585 0.288883
vt 0.526354 0.708796
vt 0.381730 0.379089
vt 0.381730 0.257645
vt 0.381730 0.419571
vt 0.381730 0.263473
vt 0.381730 0.277117
vt 0.381730 0.288883
vt 0.381730 0.298126
vt 0.381730 0.338608
vt 0.526354 0.674443
vt 0.526354 0.711581
vt 0.303103 0.296540
vt 0.057308 0.355586
vt 0.660007 0.865548
vt 0.660007 0.865548
vt 0.660007 0.873386
vt 0.660007 0.873386
vt 0.057308 0.355586
vt 0.424548 0.296540
vt 0.384066 0.296540
vt 0.381730 0.296540
vt 0.361817 0.296540
vt 0.359064 0.296540
vt 0.352138 0.296540
vt 0.343585 0.296540
vt 0.660007 0.873386
vt 0.303103 0.290054
vt 0.057308 0.355586
vt 0.343585 0.290054
vt 0.352138 0.290054
vt 0.359064 0.290054
vt 0.361817 0.290054
vt 0.381730 0.290054
vt 0.384066 0.290054
vt 0.057308 0.355586
vt 0.424548 0.290054
vt 0.660007 0.865548
vt 0.660007 0.873386
vt 0.660007 0.865548
vt 0.798703 0.646803
vt 0.798703 0.756678
vt 0.798703 0.756678
vt 0.798703 0.646803
vt 0.798703 0.756678
vt 0.798703 0.646803
vt 0.798703 0.756678
vt 0.798703 0.646803
vt 0.798703 0.756678
vt 0.798703 0.646803
vt 0.798703 0.756678
vt 0.798703 0.646803
vt 0.057308 0.371669
vt 0.057308 0.371669
vt 0.057308 0.358045
vt 0.057308 0.358045
vt 0.057308 0.358045
vt 0.057308 0.358045
vt 0.057308 0.371669
vt 0.057308 0.371669
vt 0.057308 0.330872
vt 0.057308 0.330872
vt 0.057308 0.355586
vt 0.057308 0.355586
vt 0.057308 0.302215
vt 0.057308 0.302215
vt 0.057308 0.375001
vt 0.057308 0.375001
vt 0.057308 0.371669
vt 0.057308 0.375001
vt 0.057308 0.375001
vt 0.057308 0.371669
vt 0.057308 0.375001
vt 0.057308 0.375001
vt 0.057308 0.358045
vt 0.057308 0.358045
vt 0.243917 0.554712
vt 0.243917 0.515616
vt 0.243917 0.515616
vt 0.243917 0.554712
vt 0.243917 0.470280
vt 0.243917 0.470280
vt 0.526354 0.708796
vt 0.526354 0.674220
vt 0.526354 0.631377
vt 0.526354 0.634607
vt 0.526354 0.631377
vt 0.526354 0.634607
vt 0.206091 0.470280
vt 0.206091 0.515616
vt 0.206091 0.515616
vt 0.206091 0.470280
vt 0.206091 0.470280
vt 0.206091 0.470280
vt 0.206091 0.470280
vt 0.206091 0.470280
vt 0.486006 0.774477
vt 0.486006 0.769837
vt 0.486006 0.679438
vt 0.486006 0.736941
vt 0.486006 0.683276
vt 0.486006 0.683276
vt 0.486006 0.734573
vt 0.486006 0.734573
vn 0.000000 0.000000 1.000000
vn 0.000000 0.000000 1.000000
vn 0.000000 0.000000 1.000000
vn 0.000000 0.000000 1.000000
vn 0.000000 1.000000 0.000000
vn 0.000000 1.000000 0.000000
vn 0.000000 1.000000 0.000000
vn 0.000000 1.000000 0.000000
vn 0.000000 0.000000 -1.000000
vn 0.000000 0.000000 -1.000000
vn -0.000000 0.000000 -1.000000
vn -0.000000 0.000000 -1.000000
vn 0.000000 -1.000000 0.000000
vn 0.000000 -1.000000 0.000000
vn 0.000000 -1.000000 0.000000
vn 0.000000 -1.000000 0.000000
vn 1.000000 0.000000 0.000000
vn 1.000000 0.000000 0.000000
vn 1.000000 0.000000 0.000000
vn 1.000000 0.000000 0.000000
vn -1.000000 0.000000 0.000000
vn -1.000000 0.000000 0.000000
vn -1.000000 0.000000 0.000000
vn -1.000000 0.000000 0.000000
vn 0.000000 0.000000 1.000000
vn 0.000000 0.000000 1.000000
vn 1.000000 0.000000 0.000000
vn 1.000000 0.000000 0.000000
vn 0.000000 0.000000 -1.000000
vn -0.000000 0.000000 -1.000000
vn 0.000000 0.000000 -1.000000
vn 0.000000 0.000000 -1.000000
vn -1.000000 0.000000 0.000000
vn -1.000000 0.000000 0.000000
vn 0.000000 -1.000000 0.000000
vn 0.000000 -1.000000 0.000000
vn 0.000000 0.000000 -1.000000
vn 0.000000 0.000000 -1.000000
vn 0.000000 0.000000 -1.000000
vn 0.000000 0.000000 -1.000000
vn 0.000000 1.000000 0.000000
vn 0.000000 1.000000 0.000000
vn 0.000000 0.000000 1.000000
vn 0.000000 0.000000 1.000000
vn 0.000000 0.000000 1.000000
vn 0.000000 0.000000 -1.000000
vn 0.000000 0.000000 -1.000000
vn 0.000000 -1.000000 0.000000
vn 0.000000 -1.000000 0.000000
vn 0.000000 0.000000 1.000000
vn 0.000000 0.000000 1.000000
vn 0.000000 0.000000 1.000000
vn 0.000000 1.000000 0.000000
vn 0.000000 1.000000 0.000000
vn -0.000000 0.000000 -1.000000
vn 0.000000 0.000000 -1.000000
vn 0.000000 0.000000 -1.000000
vn 0.000000 0.000000 -1.000000
vn 0.000000 0.000000 -1.000000
vn 0.000000 0.000000 -1.000000
vn 1.000000 0.000000 0.000000
vn 1.000000 0.000000 0.000000
vn 0.000000 0.000000 1.000000
vn 0.000000 0.000000 1.000000
vn 0.000000 0.000000 1.000000
vn 0.000000 0.000000 1.000000
vn -1.000000 0.000000 0.000000
vn -1.000000 0.000000 0.000000
vn 0.000000 0.000000 -1.000000
vn 0.000000 0.000000 -1.000000
vn 0.000000 -1.000000 0.000000
vn 0.000000 -1.000000 0.000000
vn 0.000000 0.000000 1.000000
vn 0.000000 0.000000 1.000000
vn 0.000000 0.000000 1.000000
vn 0.000000 0.000000 1.000000
vn 0.000000 1.000000 0.000000
vn 0.000000 1.000000 0.000000
vn 0.000000 0.000000 -1.000000
vn 0.000000 0.000000 -1.000000
vn 0.000000 0.000000 -1.000000
vn 0.000000 0.000000 -1.000000
vn 0.000000 0.000000 -1.000000
vn 0.000000 0.000000 -1.000000
vn 0.000000 0.000000 -1.000000
vn 0.000000 0.000000 -1.000000
vn 0.000000 0.000000 -1.000000
vn 0.000000 0.000000 -1.000000
vn 0.000000 0.000000 -1.000000
vn 0.000000 0.000000 -1.000000
vn 0.000000 0.000000 -1.000000
vn 0.000000 0.000000 -1.000000
vn 0.000000 0.000000 -1.000000
vn 0.000000 0.000000 -1.000000
vn 1.000000 0.000000 0.000000
vn 1.000000 0.000000 0.000000
vn 1.000000 0.000000 0.000000
vn 1.000000 0.000000 0.000000
vn 0.000000 0.000000 1.000000
vn 0.000000 0.000000 1.000000
vn 0.000000 0.000000 1.000000
vn 0.000000 0.000000 1.000000
vn 0.000000 0.000000 1.000000
vn 0.000000 0.000000 1.000000
vn 0.000000 0.000000 1.000000
vn 0.000000 0.000000 1.000000
vn 0.000000 0.000000 1.000000
vn 0.000000 0.000000 1.000000
vn -1.000000 0.000000 0.000000
vn -1.000000 0.000000 0.000000
vn -1.000000 0.000000 0.000000
vn -1.000000 0.000000 0.000000
vn 0.000000 0.000000 -1.000000
vn 0.000000 0.000000 -1.000000
vn 0.000000 -1.000000 0.000000
vn 0.000000 -1.000000 0.000000
vn 0.000000 0.000000 1.000000
vn 0.000000 0.000000 1.000000
vn 0.000000 0.000000 1.000000
vn 0.000000 0.000000 1.000000
vn 0.000000 0.000000 1.000000
vn 0.000000 0.000000 1.000000
vn 0.000000 1.000000 0.000000
vn 0.000000 1.000000 0.000000
vn 0.000000 0.000000 -1.000000
vn 0.000000 0.000000 -1.000000
vn 0.000000 0.000000 -1.000000
vn 0.000000 0.000000 -1.000000
vn 0.000000 0.000000 -1.000000
vn 0.000000 0.000000 -1.000000
vn 0.000000 0.000000 -1.000000
vn 0.000000 0.000000 -1.000000
vn 0.000000 0.000000 -1.000000
vn 0.000000 0.000000 -1.000000
vn 0.000000 0.000000 -1.000000
vn 0.000000 0.000000 -1.000000
vn 1.000000 0.000000 0.000000
vn 1.000000 0.000000 0.000000
vn 0.000000 0.000000 1.000000
vn 0.000000 0.000000 1.000000
vn 0.000000 0.000000 1.000000
vn 0.000000 0.000000 1.000000
vn 0.000000 0.000000 1.000000
vn 0.000000 0.000000 1.000000
vn -1.000000 0.000000 0.000000
vn -1.000000 0.000000 0.000000
vn 0.000000 0.000000 -1.000000
vn -0.000000 0.000000 -1.000000
vn -0.000000 0.000000 -1.000000
vn 0.000000 0.000000 -1.000000
s 1
g pCube8
usemtl lambert7SG
f 30/42/1 31/43/2 18/27/3 22/32/4
s 2
f 16/25/5 17/26/6 23/33/7 24/34/8
s 3
f 91/153/9 92/154/10 93/155/11 94/156/12
s 4
f 13/22/13 14/23/14 20/29/15 21/31/16
s 5
f 10/16/17 11/18/18 28/40/19 29/41/20
s 6
f 12/19/21 9/15/22 32/44/23 25/35/24
s 1
f 18/27/3 13/21/25 21/30/26 22/32/4
s 5
f 2/2/27 8/11/28 11/18/18 10/16/17
s 3
f 14/105/29 15/106/30 19/107/31 20/108/32
s 6
f 7/13/33 1/1/34 9/15/22 12/19/21
s 4
f 7/7/35 14/23/14 13/22/13 1/9/36
s 3
f 12/109/37 15/106/30 14/105/29 7/110/38
f 25/17/39 26/20/40 15/36/30 12/39/37
s 2
f 3/3/41 17/26/6 16/25/5 5/5/42
s 1
f 9/15/43 18/27/3 31/43/2 32/44/44
f 1/1/45 13/21/25 18/27/3 9/15/43
s 3
f 20/108/32 19/107/31 33/111/46 34/112/47
s 4
f 21/31/16 20/29/15 34/46/48 35/48/49
s 1
f 22/32/4 21/30/26 35/47/50 36/49/51
f 36/49/51 37/50/52 30/42/1 22/32/4
s 2
f 24/34/8 23/33/7 38/51/53 39/52/54
s 3
f 19/55/31 27/56/55 40/57/56 33/59/46
f 41/78/57 42/83/58 26/20/40 25/17/39
f 27/56/55 26/20/40 42/83/58 43/93/59
f 43/93/59 44/100/60 40/57/56 27/56/55
s 5
f 29/41/20 28/40/19 45/60/61 46/61/62
s 1
f 47/62/63 48/63/64 30/42/1 37/50/52
f 48/63/64 49/64/65 31/43/2 30/42/1
f 32/44/44 31/43/2 49/64/65 50/65/66
s 6
f 25/35/24 32/44/23 50/65/67 41/54/68
s 3
f 34/112/47 33/111/46 51/113/69 52/114/70
s 4
f 35/48/49 34/46/48 52/67/71 53/69/72
s 1
f 36/49/51 35/47/50 53/68/73 54/70/74
f 54/70/74 55/71/75 37/50/52 36/49/51
f 55/71/75 56/72/76 47/62/63 37/50/52
s 2
f 39/52/54 38/51/53 57/73/77 58/74/78
s 3
f 85/141/79 86/142/80 87/143/81 88/144/82
f 89/145/83 87/143/81 86/142/80 90/146/84
f 61/117/85 62/118/86 73/119/87 74/120/88
f 84/79/89 73/80/87 62/81/86 63/82/90
f 63/82/90 64/91/91 83/102/92 84/79/89
f 64/91/91 65/103/93 82/104/94 83/102/92
s 5
f 80/99/95 81/101/96 66/84/97 67/85/98
s 1
f 68/86/99 69/87/100 78/97/101 79/98/102
f 69/87/100 70/88/103 77/96/104 78/97/101
f 70/88/103 71/89/105 76/95/106 77/96/104
f 75/94/107 76/95/106 71/89/105 72/90/108
s 6
f 74/92/109 75/94/110 72/90/111 61/77/112
s 3
f 52/114/70 51/113/69 11/115/113 8/116/114
s 4
f 53/69/72 52/67/71 8/8/115 2/10/116
s 1
f 54/70/74 53/68/73 2/2/117 10/16/118
f 29/41/119 55/71/75 54/70/74 10/16/118
f 46/61/120 56/72/76 55/71/75 29/41/119
f 67/85/121 68/86/99 79/98/102 80/99/122
s 2
f 58/74/78 57/73/77 4/4/123 6/6/124
s 3
f 81/121/125 82/122/94 65/123/93 66/124/126
f 28/125/127 60/126/128 59/127/129 45/128/130
f 51/129/69 60/126/128 28/125/127 11/130/113
f 5/131/131 16/132/132 62/118/86 61/117/85
f 63/133/90 62/118/86 16/132/132 24/134/133
f 39/135/134 64/136/91 63/133/90 24/134/133
f 58/137/135 65/123/93 64/136/91 39/135/134
f 66/124/126 65/123/93 58/137/135 6/138/136
s 5
f 67/85/98 66/84/97 6/12/137 4/4/138
s 1
f 57/73/139 68/86/99 67/85/121 4/4/140
f 38/51/141 69/87/100 68/86/99 57/73/139
f 23/33/142 70/88/103 69/87/100 38/51/141
f 17/26/143 71/89/105 70/88/103 23/33/142
f 72/90/108 71/89/105 17/26/143 3/3/144
s 6
f 61/77/112 72/90/111 3/3/145 5/14/146
s 3
f 74/120/88 73/119/87 42/83/58 41/78/57
s 6
f 41/54/68 50/65/67 75/94/110 74/92/109
s 1
f 50/65/66 49/64/65 76/95/106 75/94/107
f 77/96/104 76/95/106 49/64/65 48/63/64
f 78/97/101 77/96/104 48/63/64 47/62/63
f 79/98/102 78/97/101 47/62/63 56/72/76
f 80/99/122 79/98/102 56/72/76 46/61/120
s 5
f 46/61/62 45/60/61 81/101/96 80/99/95
s 3
f 45/128/130 59/127/129 82/122/94 81/121/125
f 83/139/92 82/122/94 59/127/129 44/100/60
f 84/140/89 83/139/92 44/100/60 43/93/59
f 43/93/59 42/83/58 73/119/87 84/140/89
f 59/45/129 60/53/128 86/58/80 85/66/79
f 40/75/56 44/76/60 88/147/82 87/148/81
f 44/76/60 59/45/129 85/66/79 88/147/82
f 33/149/46 40/75/56 87/148/81 89/150/83
f 60/53/128 51/151/69 90/152/84 86/58/80
f 51/151/69 33/149/46 89/150/83 90/152/84
f 15/24/30 26/28/40 92/37/10 91/38/9
f 26/28/40 27/161/55 93/162/11 92/37/10
f 27/161/55 19/163/31 94/164/12 93/162/11
f 95/157/147 96/158/148 97/159/149 98/160/150
f 19/163/31 15/24/30 96/165/148 95/166/147
f 15/24/30 91/38/9 97/167/149 96/165/148
f 91/38/9 94/164/12 98/168/150 97/167/149
f 94/164/12 19/163/31 95/166/147 98/168/150
