# This file uses centimeters as units for non-parametric coordinates.

mtllib Shop_1.mtl
g default
v -205.530561 -16.350628 451.100094
v 205.530561 -16.350628 451.100094
v -205.530561 322.143002 451.100094
v 205.530561 322.143002 451.100094
v -205.530561 322.143002 409.912508
v 205.530561 322.143002 409.912508
v -205.530561 -16.350628 409.912508
v 205.530561 -16.350628 409.912508
v -205.530561 32.380607 451.100094
v 205.530561 32.380607 451.100094
v 205.530561 32.380607 409.912508
v -205.530561 32.380607 409.912508
v -118.677872 -16.350628 451.100094
v -181.190822 -16.350628 409.912508
v -181.081057 13.195437 409.912508
v -118.677872 322.143002 409.912508
v -118.677872 322.143002 451.100094
v -181.081057 32.380607 451.100094
v -110.749544 13.195437 409.912508
v -110.928525 -16.350628 409.912508
v -48.346362 -16.350628 451.100094
v -110.749544 32.380607 451.100094
v -48.346362 322.143002 451.100094
v -48.346362 322.143002 409.912508
v -205.530561 146.466717 409.912508
v -181.081057 146.466717 409.912508
v -110.749544 146.466717 409.912508
v 205.530561 146.466717 409.912508
v 205.530561 146.466717 451.100094
v -110.749544 146.466738 451.100094
v -181.081057 146.466717 451.100094
v -205.530561 146.466717 451.100094
v -20.390960 32.380607 409.912508
v -20.390960 -16.350628 409.912508
v -20.390960 -16.350628 451.100094
v -20.390960 32.380607 451.100094
v -20.390960 146.466738 451.100094
v -20.390960 322.143002 451.100094
v -20.390960 322.143002 409.912508
v -20.390957 146.466717 409.912508
v -205.530561 244.852290 409.912508
v -118.677872 244.852290 409.912508
v -48.346359 244.852290 409.912508
v -20.390958 244.852290 409.912508
v 205.530561 244.852290 409.912508
v 205.530561 244.852290 451.100094
v -20.390960 244.852290 451.100094
v -48.346359 244.852290 451.100094
v -118.677872 244.852290 451.100094
v -205.530561 244.852290 451.100094
v 181.807222 32.380607 409.912508
v 181.807222 -16.350628 409.912508
v 181.807222 -16.350628 451.100094
v 181.807222 32.380607 451.100094
v 181.807222 146.466717 451.100094
v 181.807222 244.852290 451.100094
v 181.807222 322.143002 451.100094
v 181.807222 322.143002 409.912508
v 181.807222 244.852290 409.912508
v 181.807222 146.466717 409.912508
v -205.530561 308.878913 409.912508
v -118.677872 308.878913 409.912508
v -48.346366 308.878913 409.912508
v -20.390958 308.878913 409.912508
v 181.807222 308.878913 409.912508
v 205.530561 308.878913 409.912508
v 205.530561 308.878913 451.100094
v 181.807222 308.878913 451.100094
v -20.390958 308.878913 451.100094
v -48.346362 308.878913 451.100094
v -118.677872 308.878913 451.100094
v -205.530561 308.878913 451.100094
v -118.677872 254.641826 409.912508
v -205.530561 254.641826 409.912508
v -205.530561 254.641826 451.100094
v -118.677872 254.641826 451.100094
v -48.346359 254.641826 451.100094
v -20.390958 254.641826 451.100094
v 181.807222 254.641826 451.100094
v 205.530561 254.641826 451.100094
v 205.530561 254.641826 409.912508
v 181.807222 254.641826 409.912508
v -20.390958 254.641826 409.912508
v -48.346359 254.641826 409.912508
v 172.583641 237.473397 409.912508
v 172.583641 145.877937 409.912508
v -11.167369 145.877937 409.912508
v -11.167372 237.473397 409.912508
v -11.167373 40.937059 409.912508
v 172.583641 40.937059 409.912508
v -176.978376 101.406962 409.912508
v -176.978376 140.896555 409.912508
v -114.852213 140.896555 409.912508
v -114.852213 101.406962 409.912508
v -114.735735 16.566327 409.912508
v -178.123303 16.566327 409.912508
v -175.844181 98.565596 409.912508
v -115.986421 98.565596 409.912508
v -110.480583 -16.350628 409.912508
v -110.302447 32.380607 409.912508
v -110.302484 146.466717 409.912508
v -48.208047 244.852290 409.912508
v -48.208035 254.641826 409.912508
v -48.208053 308.878913 409.912508
v -48.208050 322.143002 409.912508
v -48.208050 322.143002 451.100094
v -48.208038 308.878913 451.100094
v -48.208047 254.641826 451.100094
v -48.208035 244.852290 451.100094
v -110.302447 146.466738 451.100094
v -110.302484 32.380607 451.100094
v -48.208050 -16.350628 451.100094
v -120.579860 -16.350628 451.100094
v -181.723833 -16.350628 409.912508
v -181.616469 32.380607 409.912508
v -181.616481 146.466717 409.912508
v -120.579860 244.852290 409.912508
v -120.579835 254.641826 409.912508
v -120.579860 308.878913 409.912508
v -120.579860 322.143002 409.912508
v -120.579860 322.143002 451.100094
v -120.579835 308.878913 451.100094
v -120.579860 254.641826 451.100094
v -120.579835 244.852290 451.100094
v -181.616469 146.466717 451.100094
v -181.616481 32.380607 451.100094
vt 0.343585 0.257645
vt 0.384066 0.257645
vt 0.343585 0.298126
vt 0.384066 0.298126
vt 0.343585 0.338608
vt 0.384066 0.338608
vt 0.343585 0.379089
vt 0.384066 0.379089
vt 0.343585 0.419571
vt 0.384066 0.419571
vt 0.424548 0.257645
vt 0.424548 0.298126
vt 0.303103 0.257645
vt 0.303103 0.298126
vt 0.343585 0.263473
vt 0.384066 0.263473
vt 0.922269 0.883136
vt 0.424548 0.263473
vt 0.303103 0.263473
vt 0.922269 0.883136
vt 0.352138 0.257645
vt 0.352138 0.419571
vt 0.352138 0.379089
vt 0.054786 0.515524
vt 0.352138 0.338608
vt 0.352138 0.298126
vt 0.352138 0.263473
vt 0.054786 0.610564
vt 0.359064 0.379089
vt 0.359064 0.257645
vt 0.359064 0.419571
vt 0.359064 0.263473
vt 0.359064 0.298126
vt 0.359064 0.338608
vt 0.303103 0.277117
vt 0.922269 0.854479
vt 0.054786 0.605923
vt 0.054786 0.573027
vt 0.922269 0.854479
vt 0.424548 0.277117
vt 0.384066 0.277117
vt 0.359064 0.277117
vt 0.352138 0.277117
vt 0.343585 0.277117
vt 0.095134 0.547667
vt 0.361817 0.379089
vt 0.361817 0.257645
vt 0.361817 0.419571
vt 0.361817 0.263473
vt 0.361817 0.277117
vt 0.361817 0.298126
vt 0.361817 0.338608
vt 0.095134 0.510529
vt 0.303103 0.288883
vt 0.922269 0.854479
vt 0.922269 0.883136
vt 0.922269 0.883136
vt 0.095134 0.510306
vt 0.922269 0.854479
vt 0.424548 0.288883
vt 0.384066 0.288883
vt 0.361817 0.288883
vt 0.359064 0.288883
vt 0.352138 0.288883
vt 0.343585 0.288883
vt 0.095134 0.544882
vt 0.381730 0.379089
vt 0.381730 0.257645
vt 0.381730 0.419571
vt 0.381730 0.263473
vt 0.381730 0.277117
vt 0.381730 0.288883
vt 0.381730 0.298126
vt 0.381730 0.338608
vt 0.095134 0.510529
vt 0.095134 0.547667
vt 0.303103 0.296540
vt 0.922269 0.907850
vt 0.660007 0.865548
vt 0.660007 0.865548
vt 0.660007 0.873386
vt 0.660007 0.873386
vt 0.922269 0.907850
vt 0.424548 0.296540
vt 0.384066 0.296540
vt 0.381730 0.296540
vt 0.361817 0.296540
vt 0.359064 0.296540
vt 0.352138 0.296540
vt 0.343585 0.296540
vt 0.660007 0.873386
vt 0.303103 0.290054
vt 0.922269 0.907850
vt 0.343585 0.290054
vt 0.352138 0.290054
vt 0.359064 0.290054
vt 0.361817 0.290054
vt 0.381730 0.290054
vt 0.384066 0.290054
vt 0.922269 0.907850
vt 0.424548 0.290054
vt 0.660007 0.865548
vt 0.660007 0.873386
vt 0.660007 0.865548
vt 0.798703 0.646803
vt 0.798703 0.756678
vt 0.798703 0.756678
vt 0.798703 0.646803
vt 0.798703 0.756678
vt 0.798703 0.646803
vt 0.798703 0.756678
vt 0.798703 0.646803
vt 0.798703 0.756678
vt 0.798703 0.646803
vt 0.798703 0.756678
vt 0.798703 0.646803
vt 0.922269 0.923933
vt 0.922269 0.923933
vt 0.922269 0.910309
vt 0.922269 0.910309
vt 0.922269 0.910309
vt 0.922269 0.910309
vt 0.922269 0.923933
vt 0.922269 0.923933
vt 0.922269 0.883136
vt 0.922269 0.883136
vt 0.922269 0.907850
vt 0.922269 0.907850
vt 0.922269 0.854479
vt 0.922269 0.854479
vt 0.922269 0.927265
vt 0.922269 0.927265
vt 0.922269 0.923933
vt 0.922269 0.927265
vt 0.922269 0.927265
vt 0.922269 0.923933
vt 0.922269 0.927265
vt 0.922269 0.927265
vt 0.922269 0.910309
vt 0.922269 0.910309
vt 0.523832 0.569843
vt 0.523832 0.530746
vt 0.523832 0.530746
vt 0.523832 0.569843
vt 0.523832 0.485411
vt 0.523832 0.485411
vt 0.095134 0.544882
vt 0.095134 0.510306
vt 0.095134 0.467463
vt 0.095134 0.470693
vt 0.095134 0.467463
vt 0.095134 0.470693
vt 0.190960 0.684629
vt 0.190960 0.729965
vt 0.190960 0.729965
vt 0.190960 0.684629
vt 0.190960 0.684629
vt 0.190960 0.684629
vt 0.190960 0.684629
vt 0.190960 0.684629
vt 0.054786 0.610564
vt 0.054786 0.605923
vt 0.054786 0.515524
vt 0.054786 0.573027
vt 0.054786 0.519362
vt 0.054786 0.519362
vt 0.054786 0.570660
vt 0.054786 0.570660
vt 0.359078 0.379089
vt 0.798703 0.646803
vt 0.922269 0.854479
vt 0.798703 0.756678
vt 0.922269 0.883136
vt 0.922269 0.907850
vt 0.660007 0.865548
vt 0.922269 0.910309
vt 0.660007 0.873386
vt 0.922269 0.923933
vt 0.922269 0.927265
vt 0.359078 0.338608
vt 0.359078 0.298126
vt 0.359078 0.296540
vt 0.359078 0.290054
vt 0.359078 0.288883
vt 0.359078 0.277117
vt 0.359078 0.263473
vt 0.359078 0.257645
vt 0.359078 0.419571
vt 0.351951 0.257645
vt 0.351951 0.419571
vt 0.351951 0.379089
vt 0.798703 0.646803
vt 0.922269 0.854479
vt 0.798703 0.756678
vt 0.922269 0.883136
vt 0.922269 0.907850
vt 0.922269 0.910309
vt 0.922269 0.923933
vt 0.922269 0.927265
vt 0.351951 0.338608
vt 0.351951 0.298126
vt 0.351951 0.296540
vt 0.351951 0.290054
vt 0.351951 0.288883
vt 0.351951 0.277117
vt 0.351951 0.263473
vn 0.000000 0.000000 1.000000
vn 0.000000 0.000000 1.000000
vn 0.000000 0.000000 1.000000
vn 0.000000 0.000000 1.000000
vn 0.000000 1.000000 0.000000
vn 0.000000 1.000000 0.000000
vn 0.000000 1.000000 0.000000
vn 0.000000 1.000000 0.000000
vn -0.000000 0.000000 -1.000000
vn 0.000000 0.000000 -1.000000
vn -0.000000 0.000000 -1.000000
vn -0.000000 0.000000 -1.000000
vn 0.000000 -1.000000 0.000000
vn 0.000000 -1.000000 0.000000
vn 0.000000 -1.000000 -0.000000
vn 0.000000 -1.000000 -0.000000
vn 1.000000 0.000000 0.000000
vn 1.000000 0.000000 0.000000
vn 1.000000 0.000000 0.000000
vn 1.000000 0.000000 0.000000
vn -1.000000 0.000000 0.000000
vn -1.000000 0.000000 0.000000
vn -1.000000 0.000000 0.000000
vn -1.000000 0.000000 0.000000
vn 0.000000 0.000000 1.000000
vn 0.000000 0.000000 1.000000
vn 1.000000 0.000000 0.000000
vn 1.000000 0.000000 0.000000
vn -0.000000 0.000000 -1.000000
vn -0.000000 0.000000 -1.000000
vn 0.000000 0.000000 -1.000000
vn 0.000000 0.000000 -1.000000
vn -1.000000 0.000000 0.000000
vn -1.000000 0.000000 0.000000
vn 0.000000 -1.000000 0.000000
vn 0.000000 -1.000000 0.000000
vn -0.000000 0.000000 -1.000000
vn -0.000000 0.000000 -1.000000
vn -0.000000 0.000000 -1.000000
vn -0.000000 0.000000 -1.000000
vn 0.000000 1.000000 0.000000
vn 0.000000 1.000000 0.000000
vn 0.000000 0.000000 1.000000
vn 0.000000 0.000000 1.000000
vn 0.000000 0.000000 1.000000
vn 0.000000 0.000000 -1.000000
vn 0.000000 0.000000 -1.000000
vn 0.000000 0.000000 -1.000000
vn 0.000000 0.000000 -1.000000
vn 0.000000 -1.000000 -0.000000
vn 0.000000 -1.000000 -0.000000
vn 0.000000 -1.000000 0.000000
vn 0.000000 -1.000000 0.000000
vn 0.000000 0.000000 1.000000
vn 0.000000 0.000000 1.000000
vn 0.000000 0.000000 1.000000
vn 0.000000 0.000000 1.000000
vn 0.000000 0.000000 1.000000
vn 0.000000 0.000000 1.000000
vn 0.000000 1.000000 0.000000
vn 0.000000 1.000000 0.000000
vn 0.000000 1.000000 0.000000
vn 0.000000 1.000000 0.000000
vn 0.000000 0.000000 -1.000000
vn 0.000000 0.000000 -1.000000
vn 0.000000 0.000000 -1.000000
vn 0.000000 0.000000 -1.000000
vn 0.000000 0.000000 -1.000000
vn 0.000000 0.000000 -1.000000
vn 0.000000 0.000000 -1.000000
vn 0.000000 0.000000 -1.000000
vn 1.000000 0.000000 0.000000
vn 1.000000 0.000000 0.000000
vn 0.000000 0.000000 1.000000
vn 0.000000 0.000000 1.000000
vn 0.000000 0.000000 1.000000
vn 0.000000 0.000000 1.000000
vn 0.000000 0.000000 1.000000
vn -1.000000 0.000000 0.000000
vn -1.000000 0.000000 0.000000
vn 0.000000 0.000000 -1.000000
vn 0.000000 0.000000 -1.000000
vn 0.000000 -1.000000 0.000000
vn 0.000000 -1.000000 0.000000
vn 0.000000 0.000000 1.000000
vn 0.000000 0.000000 1.000000
vn 0.000000 0.000000 1.000000
vn 0.000000 0.000000 1.000000
vn 0.000000 1.000000 0.000000
vn 0.000000 1.000000 0.000000
vn 0.000000 0.000000 -1.000000
vn 0.000000 0.000000 -1.000000
vn 0.000000 0.000000 -1.000000
vn 0.000000 0.000000 -1.000000
vn 0.000000 0.000000 -1.000000
vn 0.000000 0.000000 -1.000000
vn 0.000000 0.000000 -1.000000
vn 0.000000 0.000000 -1.000000
vn 0.000000 0.000000 -1.000000
vn 0.000000 0.000000 -1.000000
vn 0.000000 0.000000 -1.000000
vn 0.000000 0.000000 -1.000000
vn 0.000000 0.000000 -1.000000
vn 0.000000 0.000000 -1.000000
vn 0.000000 0.000000 -1.000000
vn 0.000000 0.000000 -1.000000
vn 0.000000 0.000000 -1.000000
vn 0.000000 0.000000 -1.000000
vn 1.000000 0.000000 0.000000
vn 1.000000 0.000000 0.000000
vn 1.000000 0.000000 0.000000
vn 1.000000 0.000000 0.000000
vn 0.000000 0.000000 1.000000
vn 0.000000 0.000000 1.000000
vn 0.000000 0.000000 1.000000
vn 0.000000 0.000000 1.000000
vn 0.000000 0.000000 1.000000
vn 0.000000 0.000000 1.000000
vn 0.000000 0.000000 1.000000
vn 0.000000 0.000000 1.000000
vn 0.000000 0.000000 1.000000
vn 0.000000 0.000000 1.000000
vn 0.000000 0.000000 1.000000
vn 0.000000 0.000000 1.000000
vn -1.000000 0.000000 0.000000
vn -1.000000 0.000000 0.000000
vn -1.000000 0.000000 0.000000
vn -1.000000 0.000000 0.000000
vn 0.000000 0.000000 -1.000000
vn 0.000000 0.000000 -1.000000
vn 0.000000 -1.000000 0.000000
vn 0.000000 -1.000000 0.000000
vn 0.000000 0.000000 1.000000
vn 0.000000 0.000000 1.000000
vn 0.000000 0.000000 1.000000
vn 0.000000 0.000000 1.000000
vn 0.000000 0.000000 1.000000
vn 0.000000 0.000000 1.000000
vn 0.000000 1.000000 0.000000
vn 0.000000 1.000000 0.000000
vn 0.000000 0.000000 -1.000000
vn 0.000000 0.000000 -1.000000
vn 0.000000 0.000000 -1.000000
vn 0.000000 0.000000 -1.000000
vn 0.000000 0.000000 -1.000000
vn 0.000000 0.000000 -1.000000
vn 0.000000 0.000000 -1.000000
vn 0.000000 0.000000 -1.000000
vn 0.000000 0.000000 -1.000000
vn 0.000000 0.000000 -1.000000
vn 0.000000 0.000000 -1.000000
vn 0.000000 0.000000 -1.000000
vn 0.000000 0.000000 -1.000000
vn 1.000000 0.000000 0.000000
vn 1.000000 0.000000 0.000000
vn 0.000000 0.000000 1.000000
vn 0.000000 0.000000 1.000000
vn 0.000000 0.000000 1.000000
vn 0.000000 0.000000 1.000000
vn 0.000000 0.000000 1.000000
vn 0.000000 0.000000 1.000000
vn 0.000000 0.000000 1.000000
vn -1.000000 0.000000 0.000000
vn -1.000000 0.000000 0.000000
vn 0.000000 0.000000 -1.000000
vn -0.000000 0.000000 -1.000000
vn -0.000000 0.000000 -1.000000
vn 0.000000 0.000000 -1.000000
vn 0.000000 -1.000000 0.000000
vn 0.000000 -1.000000 0.000000
vn 0.000000 0.000000 -1.000000
vn 0.000000 0.000000 -1.000000
vn 0.000000 0.000000 -1.000000
vn 0.000000 0.000000 -1.000000
vn 0.000000 0.000000 -1.000000
vn 0.000000 0.000000 -1.000000
vn 0.000000 0.000000 -1.000000
vn 0.000000 1.000000 0.000000
vn 0.000000 1.000000 0.000000
vn 0.000000 0.000000 1.000000
vn 0.000000 0.000000 1.000000
vn 0.000000 0.000000 1.000000
vn 0.000000 0.000000 1.000000
vn 0.000000 0.000000 1.000000
vn 0.000000 0.000000 1.000000
vn 0.000000 0.000000 1.000000
s 1
g pCube5
usemtl lambert7SG
f 30/42/1 31/43/2 18/27/3 22/32/4
s 2
f 16/25/5 17/26/6 23/33/7 24/34/8
s 3
f 91/153/9 92/154/10 93/155/11 94/156/12
s 4
f 13/22/13 14/23/14 20/29/15 21/31/16
s 5
f 10/16/17 11/18/18 28/40/19 29/41/20
s 6
f 12/19/21 9/15/22 32/44/23 25/35/24
s 1
f 18/27/3 13/21/25 21/30/26 22/32/4
s 5
f 2/2/27 8/11/28 11/18/18 10/16/17
s 3
f 14/105/29 15/106/30 19/107/31 20/108/32
s 6
f 7/13/33 1/1/34 9/15/22 12/19/21
s 4
f 113/190/35 114/191/36 14/23/14 13/22/13
s 3
f 114/192/37 115/194/38 15/106/30 14/105/29
f 115/193/38 116/195/39 26/20/40 15/36/30
s 2
f 120/200/41 121/201/42 17/26/6 16/25/5
s 1
f 125/205/43 126/206/44 18/27/3 31/43/2
f 126/206/44 113/189/45 13/21/25 18/27/3
s 3
f 99/170/46 100/172/47 33/111/48 34/112/49
s 4
f 112/188/50 99/169/51 34/46/52 35/48/53
s 1
f 111/186/54 112/187/55 35/47/56 36/49/57
f 36/49/57 37/50/58 110/185/59 111/186/54
s 2
f 105/180/60 106/181/61 38/51/62 39/52/63
s 3
f 100/171/47 101/173/64 40/57/65 33/59/48
f 116/195/39 117/196/66 42/83/67 26/20/40
f 27/56/68 26/20/40 42/83/67 43/93/69
f 101/173/64 102/174/70 44/100/71 40/57/65
s 5
f 29/41/20 28/40/19 45/60/72 46/61/73
s 1
f 47/62/74 109/184/75 110/185/59 37/50/58
f 48/63/76 49/64/77 31/43/2 30/42/1
f 124/204/78 125/205/43 31/43/2 49/64/77
s 6
f 25/35/24 32/44/23 50/65/79 41/54/80
s 3
f 34/112/49 33/111/48 51/113/81 52/114/82
s 4
f 35/48/53 34/46/52 52/67/83 53/69/84
s 1
f 36/49/57 35/47/56 53/68/85 54/70/86
f 54/70/86 55/71/87 37/50/58 36/49/57
f 55/71/87 56/72/88 47/62/74 37/50/58
s 2
f 39/52/63 38/51/62 57/73/89 58/74/90
s 3
f 85/141/91 86/142/92 87/143/93 88/144/94
f 89/145/95 87/143/93 86/142/92 90/146/96
f 118/197/97 119/198/98 62/118/99 73/119/100
f 84/79/101 73/80/100 62/81/99 63/82/102
f 103/175/103 104/177/104 64/91/105 83/102/106
f 64/91/105 65/103/107 82/104/108 83/102/106
s 5
f 80/99/109 81/101/110 66/84/111 67/85/112
s 1
f 68/86/113 69/87/114 78/97/115 79/98/116
f 69/87/114 107/182/117 108/183/118 78/97/115
f 70/88/119 71/89/120 76/95/121 77/96/122
f 122/202/123 123/203/124 76/95/121 71/89/120
s 6
f 74/92/125 75/94/126 72/90/127 61/77/128
s 3
f 52/114/82 51/113/81 11/115/129 8/116/130
s 4
f 53/69/84 52/67/83 8/8/131 2/10/132
s 1
f 54/70/86 53/68/85 2/2/133 10/16/134
f 29/41/135 55/71/87 54/70/86 10/16/134
f 46/61/136 56/72/88 55/71/87 29/41/135
f 67/85/137 68/86/113 79/98/116 80/99/138
s 2
f 58/74/90 57/73/89 4/4/139 6/6/140
s 3
f 81/121/141 82/122/108 65/123/107 66/124/142
f 28/125/143 60/126/144 59/127/145 45/128/146
f 51/129/81 60/126/144 28/125/143 11/130/129
f 119/198/98 120/199/147 16/132/148 62/118/99
f 63/133/102 62/118/99 16/132/148 24/134/149
f 39/135/150 64/136/105 104/178/104 105/179/151
f 58/137/152 65/123/107 64/136/105 39/135/150
f 66/124/142 65/123/107 58/137/152 6/138/153
s 5
f 67/85/112 66/84/111 6/12/154 4/4/155
s 1
f 57/73/156 68/86/113 67/85/137 4/4/157
f 38/51/158 69/87/114 68/86/113 57/73/156
f 106/181/159 107/182/117 69/87/114 38/51/158
f 17/26/160 71/89/120 70/88/119 23/33/161
f 121/201/162 122/202/123 71/89/120 17/26/160
s 6
f 61/77/128 72/90/127 3/3/163 5/14/164
s 3
f 117/196/66 118/197/97 73/119/100 42/83/67
s 6
f 41/54/80 50/65/79 75/94/126 74/92/125
s 1
f 123/203/124 124/204/78 49/64/77 76/95/121
f 77/96/122 76/95/121 49/64/77 48/63/76
f 78/97/115 108/183/118 109/184/75 47/62/74
f 79/98/116 78/97/115 47/62/74 56/72/88
f 80/99/138 79/98/116 56/72/88 46/61/136
s 5
f 46/61/73 45/60/72 81/101/110 80/99/109
s 3
f 45/128/146 59/127/145 82/122/108 81/121/141
f 83/139/106 82/122/108 59/127/145 44/100/71
f 102/174/70 103/176/103 83/139/106 44/100/71
f 43/93/69 42/83/67 73/119/100 84/140/101
f 59/45/145 60/53/144 86/58/92 85/66/91
f 40/75/65 44/76/71 88/147/94 87/148/93
f 44/76/71 59/45/145 85/66/91 88/147/94
f 33/149/48 40/75/65 87/148/93 89/150/95
f 60/53/144 51/151/81 90/152/96 86/58/92
f 51/151/81 33/149/48 89/150/95 90/152/96
f 15/24/30 26/28/40 92/37/10 91/38/9
f 26/28/40 27/161/68 93/162/11 92/37/10
f 27/161/68 19/163/31 94/164/12 93/162/11
f 95/157/165 96/158/166 97/159/167 98/160/168
f 19/163/31 15/24/30 96/165/166 95/166/165
f 15/24/30 91/38/9 97/167/167 96/165/166
f 91/38/9 94/164/12 98/168/168 97/167/167
f 94/164/12 19/163/31 95/166/165 98/168/168
f 20/108/32 19/107/31 100/172/47 99/170/46
f 19/55/31 27/56/68 101/173/64 100/171/47
f 43/93/69 102/174/70 101/173/64 27/56/68
f 84/140/101 103/176/103 102/174/70 43/93/69
f 63/82/102 104/177/104 103/175/103 84/79/101
f 105/179/151 104/178/104 63/133/102 24/134/149
s 2
f 24/34/8 23/33/7 106/181/61 105/180/60
s 1
f 23/33/161 70/88/119 107/182/117 106/181/159
f 108/183/118 107/182/117 70/88/119 77/96/122
f 109/184/75 108/183/118 77/96/122 48/63/76
f 110/185/59 109/184/75 48/63/76 30/42/1
f 111/186/54 110/185/59 30/42/1 22/32/4
f 22/32/4 21/30/26 112/187/55 111/186/54
s 4
f 21/31/16 20/29/15 99/169/51 112/188/50
f 7/7/169 114/191/36 113/190/35 1/9/170
s 3
f 12/109/171 115/194/38 114/192/37 7/110/172
f 25/17/173 116/195/39 115/193/38 12/39/171
f 41/78/174 117/196/66 116/195/39 25/17/173
f 74/120/175 118/197/97 117/196/66 41/78/174
f 61/117/176 119/198/98 118/197/97 74/120/175
f 5/131/177 120/199/147 119/198/98 61/117/176
s 2
f 3/3/178 121/201/42 120/200/41 5/5/179
s 1
f 72/90/180 122/202/123 121/201/162 3/3/181
f 75/94/182 123/203/124 122/202/123 72/90/180
f 50/65/183 124/204/78 123/203/124 75/94/182
f 32/44/184 125/205/43 124/204/78 50/65/183
f 9/15/185 126/206/44 125/205/43 32/44/184
f 1/1/186 113/189/45 126/206/44 9/15/185
