# This file uses centimeters as units for non-parametric coordinates.

mtllib TV.mtl
g default
v 164.774171 15.639497 403.517152
v 226.237022 15.639497 403.517152
v 164.774171 77.102282 403.517152
v 226.237022 77.102282 403.517152
v 164.774171 77.102282 342.054448
v 226.237022 77.102282 342.054448
v 164.774171 15.639497 342.054448
v 226.237022 15.639497 342.054448
v 171.432700 70.443820 342.054448
v 219.578493 70.443820 342.054448
v 219.578493 22.297967 342.054448
v 171.432700 22.297967 342.054448
v 157.612516 26.736944 353.151825
v 157.612516 26.736944 392.419746
v 157.612516 66.004839 392.419746
v 157.612516 66.004839 353.151825
v 234.085870 28.444242 354.859177
v 234.085870 28.444242 390.712394
v 234.085870 64.297532 354.859177
v 234.085870 64.297532 390.712394
vt 0.769601 0.446824
vt 0.811905 0.446824
vt 0.769601 0.489129
vt 0.811905 0.489129
vt 0.769601 0.531433
vt 0.811905 0.531433
vt 0.769601 0.573737
vt 0.811905 0.573737
vt 0.769601 0.616041
vt 0.811905 0.616041
vt 0.854209 0.446824
vt 0.854209 0.489129
vt 0.727296 0.446824
vt 0.727296 0.489129
vt 0.769601 0.531433
vt 0.811905 0.531433
vt 0.811905 0.573737
vt 0.769601 0.573737
vt 0.727296 0.446824
vt 0.769601 0.446824
vt 0.769601 0.489129
vt 0.727296 0.489129
vt 0.811905 0.446824
vt 0.854209 0.446824
vt 0.854209 0.489129
vt 0.811905 0.489129
vt 0.809697 0.412169
vt 0.809697 0.412169
vt 0.809697 0.257788
vt 0.809697 0.257788
vn 0.000000 0.000000 1.000000
vn 0.000000 0.000000 1.000000
vn 0.000000 0.000000 1.000000
vn 0.000000 0.000000 1.000000
vn 0.000000 1.000000 0.000000
vn 0.000000 1.000000 0.000000
vn 0.000000 1.000000 0.000000
vn 0.000000 1.000000 0.000000
vn 0.000000 0.000000 -1.000000
vn -0.000000 0.000000 -1.000000
vn -0.000000 0.000000 -1.000000
vn 0.000000 0.000000 -1.000000
vn 0.000000 -1.000000 0.000000
vn 0.000000 -1.000000 0.000000
vn 0.000000 -1.000000 0.000000
vn 0.000000 -1.000000 0.000000
vn 1.000000 0.000000 0.000000
vn 1.000000 0.000000 0.000000
vn 1.000000 0.000000 0.000000
vn 1.000000 0.000000 0.000000
vn -1.000000 0.000000 0.000000
vn -1.000000 0.000000 0.000000
vn -1.000000 0.000000 0.000000
vn -1.000000 0.000000 0.000000
vn 0.000000 0.000000 -1.000000
vn -0.000000 0.000000 -1.000000
vn -0.000000 0.000000 -1.000000
vn 0.000000 0.000000 -1.000000
vn -0.840227 -0.542234 0.000000
vn -0.840227 -0.542234 0.000000
vn -0.840227 -0.542234 0.000000
vn -0.840227 -0.542234 0.000000
vn -0.840226 0.000000 0.542236
vn -0.840226 0.000000 0.542236
vn -0.840226 0.000000 0.542236
vn -0.840226 0.000000 0.542236
vn -0.840227 0.542235 0.000000
vn -0.840227 0.542234 0.000000
vn -0.840227 0.542234 0.000000
vn -0.840227 0.542235 0.000000
vn -0.840226 0.000000 -0.542237
vn -0.840226 0.000000 -0.542237
vn -0.840226 0.000000 -0.542237
vn -0.840226 0.000000 -0.542237
vn 0.852578 -0.522600 0.000000
vn 0.852578 -0.522600 0.000000
vn 0.852578 -0.522600 0.000000
vn 0.852578 -0.522600 0.000000
vn 0.852578 0.000000 -0.522600
vn 0.852578 0.000000 -0.522600
vn 0.852578 0.000000 -0.522600
vn 0.852578 0.000000 -0.522600
vn 0.852578 0.522600 0.000000
vn 0.852578 0.522600 0.000000
vn 0.852578 0.522600 0.000000
vn 0.852578 0.522600 0.000000
vn 0.852578 0.000000 0.522599
vn 0.852578 0.000000 0.522599
vn 0.852578 0.000000 0.522599
vn 0.852578 0.000000 0.522599
s off
g pCube14
usemtl lambert11SG
f 1/1/1 2/2/2 4/4/3 3/3/4
f 3/3/5 4/4/6 6/6/7 5/5/8
s 1
f 9/27/9 10/28/10 11/29/11 12/30/12
s off
f 7/7/13 8/8/14 2/10/15 1/9/16
f 18/23/17 17/24/18 19/25/19 20/26/20
f 13/19/21 14/20/22 15/21/23 16/22/24
s 1
f 5/5/25 6/6/26 10/16/10 9/15/9
f 6/6/26 8/8/27 11/17/11 10/16/10
f 8/8/27 7/7/28 12/18/12 11/17/11
f 7/7/28 5/5/25 9/15/9 12/18/12
s off
f 7/13/29 1/1/30 14/20/31 13/19/32
f 1/1/33 3/3/34 15/21/35 14/20/36
f 3/3/37 5/14/38 16/22/39 15/21/40
f 5/14/41 7/13/42 13/19/43 16/22/44
f 2/2/45 8/11/46 17/24/47 18/23/48
f 8/11/49 6/12/50 19/25/51 17/24/52
f 6/12/53 4/4/54 20/26/55 19/25/56
f 4/4/57 2/2/58 18/23/59 20/26/60
